<?xml version="1.0" encoding="UTF-8"?>
<svg width="180px" height="48px" viewBox="0 0 180 48" version="1.1" xmlns="http://www.w3.org/2000/svg" xmlns:xlink="http://www.w3.org/1999/xlink">
    <title>Group 121</title>
    <defs>
        <polygon id="path-1" points="0.366296064 0.9532 23.717 0.9532 23.717 33.3896134 0.366296064 33.3896134"></polygon>
        <polygon id="path-3" points="0.4283 0.2315 1.7943 0.2315 1.7943 1 0.4283 1"></polygon>
        <polygon id="path-5" points="0 46.8796 179.717 46.8796 179.717 -0.0004 0 -0.0004"></polygon>
    </defs>
    <g id="Mobile-Option" stroke="none" stroke-width="1" fill="none" fill-rule="evenodd">
        <g id="Mobile-Client-Edit-Copy-2" transform="translate(-127.000000, -7126.000000)">
            <g id="Group-121" transform="translate(127.000000, 7126.000000)">
                <path d="M174.4996,46.5501 C170.9806,46.5171 167.4286,46.2611 164.1316,44.7621 C156.8456,41.3181 149.7376,32.9751 150.2396,23.6891 L150.3666,9.9981 L151.1756,10.0061 L151.0476,23.7141 C150.5646,32.6621 157.4356,40.7021 164.4716,44.0291 C168.3276,45.7811 172.6396,45.7611 176.8126,45.7411 C177.7656,45.7371 178.7156,45.7341 179.6566,45.7481 L179.6436,46.5571 C178.7106,46.5421 177.7636,46.5451 176.8156,46.5501 C176.0476,46.5541 175.2736,46.5571 174.4996,46.5501" id="Fill-1" fill="#0C6635"></path>
                <path d="M175.6675,45.1887 C168.6595,45.1237 162.3595,42.7277 157.9815,38.3727 C153.2025,33.6197 151.0185,26.8067 151.8305,19.1907 C151.8435,17.8347 151.8585,16.1567 151.8735,14.4637 C151.8905,12.5597 151.9065,10.6357 151.9245,9.0887 L152.5305,9.0957 C152.5135,10.6427 152.4965,12.5657 152.4805,14.4687 C152.4655,16.1627 152.4495,17.8407 152.4355,19.2257 C151.6415,26.6847 153.7635,33.3227 158.4085,37.9427 C163.4655,42.9727 171.1735,45.3167 179.5605,44.3797 L179.6275,44.9827 C178.2885,45.1327 176.9655,45.2007 175.6675,45.1887" id="Fill-3" fill="#37813E"></path>
                <path d="M175.6265,43.4778 C163.9285,43.3688 155.4765,36.9408 153.6285,26.3708 L153.6615,26.3638 L153.6275,26.3648 C153.2695,22.6828 153.3635,18.7028 153.4535,14.8518 C153.5055,12.6598 153.5595,10.3918 153.5235,8.2618 L153.9285,8.2548 C153.9635,10.3938 153.9095,12.6648 153.8575,14.8618 C153.7685,18.6928 153.6745,22.6538 154.0275,26.3058 L154.0295,26.3208 C156.4895,40.3198 169.3705,43.9828 179.6625,42.8688 L179.7065,43.2698 C178.3095,43.4208 176.9455,43.4898 175.6265,43.4778" id="Fill-5" fill="#659D41"></path>
                <path d="M176.1021,41.8469 C164.5871,41.7389 156.9731,36.0089 154.9891,25.7729 C154.9871,25.7659 154.9871,25.7599 154.9851,25.7539 L155.0701,25.7369 L154.9841,25.7449 C154.6241,22.1949 154.7161,18.3539 154.8061,14.6389 C154.8571,12.5209 154.9101,10.3309 154.8731,8.2749 L155.2771,8.2679 C155.3141,10.3329 155.2611,12.5269 155.2101,14.6489 C155.1221,18.3469 155.0301,22.1699 155.3851,25.6919 C157.5261,36.7399 166.3661,42.4299 179.6761,41.3029 L179.7101,41.7059 C178.4691,41.8109 177.2651,41.8579 176.1021,41.8469" id="Fill-7" fill="#9DB73B"></path>
                <g id="Group-11" transform="translate(156.000000, 6.879600)">
                    <mask id="mask-2" fill="white">
                        <use xlink:href="#path-1"></use>
                    </mask>
                    <g id="Clip-10"></g>
                    <path d="M20.3941,33.3882 C15.9041,33.3462 11.9251,32.3782 8.7511,30.5382 C4.2631,27.9362 1.5231,23.7472 0.6081,18.0902 C0.2571,14.2882 0.3631,10.1852 0.4641,6.2172 C0.5091,4.4702 0.5561,2.6642 0.5591,0.9532 L0.7611,0.9542 C0.7581,2.6662 0.7111,4.4742 0.6661,6.2222 C0.5651,10.1802 0.4591,14.2732 0.8081,18.0602 L0.8091,18.0682 L0.8091,18.0722 C1.7171,23.6592 4.4231,27.7952 8.8531,30.3642 C12.7521,32.6242 17.8841,33.5572 23.7011,33.0552 L23.7171,33.2572 C22.5831,33.3552 21.4741,33.3982 20.3941,33.3882" id="Fill-9" fill="#C6D12D" mask="url(#mask-2)"></path>
                </g>
                <path d="M126.3853,46.552 C125.6113,46.545 124.8393,46.527 124.0713,46.509 C123.1243,46.487 122.1803,46.466 121.2443,46.463 L121.2453,45.655 C122.1863,45.656 123.1373,45.678 124.0903,45.7 C128.2563,45.797 132.5723,45.899 136.4673,44.217 C143.5583,41.025 150.5773,33.114 150.2633,24.178 L150.3903,10.451 L151.1983,10.458 L151.0713,24.167 C151.3993,33.442 144.1363,41.651 136.7933,44.956 C133.4633,46.395 129.9063,46.585 126.3853,46.552" id="Fill-12" fill="#0C6635"></path>
                <path d="M125.2447,45.1692 C123.9457,45.1572 122.6267,45.0652 121.2907,44.8902 L121.3687,44.2882 C129.7407,45.3842 137.4857,43.1832 142.6367,38.2472 C147.3677,33.7142 149.6137,27.1182 148.9607,19.6752 C148.9717,18.1692 148.9887,16.3962 149.0067,14.6122 C149.0247,12.6852 149.0447,10.7462 149.0567,9.1592 L149.6637,9.1642 C149.6507,10.7512 149.6317,12.6902 149.6127,14.6172 C149.5957,16.4002 149.5777,18.1752 149.5647,19.6502 C150.2337,27.2522 147.9227,34.0232 143.0557,38.6862 C138.5977,42.9572 132.2527,45.2342 125.2447,45.1692" id="Fill-14" fill="#37813E"></path>
                <path d="M125.3189,43.4593 C123.9979,43.4463 122.6379,43.3533 121.2429,43.1753 L121.2949,42.7743 C131.5579,44.0813 144.5089,40.6623 147.2319,26.7133 C147.6559,23.0643 147.6359,19.0983 147.6179,15.2613 C147.6069,13.0623 147.5959,10.7883 147.6729,8.6493 L148.0769,8.6633 C148.0009,10.7943 148.0109,13.0633 148.0219,15.2593 C148.0419,19.1073 148.0599,23.0883 147.6329,26.7623 L147.5619,26.7533 L147.6329,26.7673 C145.5879,37.3003 137.0149,43.5683 125.3189,43.4593" id="Fill-16" fill="#659D41"></path>
                <path d="M124.8775,41.8196 C123.7125,41.8086 122.5095,41.7396 121.2685,41.6106 L121.3105,41.2096 C134.5835,42.5846 143.5345,37.0656 145.8865,26.0686 L145.8905,26.0526 C146.3145,22.3966 146.2945,18.4326 146.2735,14.6006 C146.2625,12.3816 146.2505,10.0876 146.3285,7.9236 L146.7325,7.9386 C146.6545,10.0926 146.6665,12.3826 146.6785,14.5976 C146.6985,18.4486 146.7205,22.4296 146.2895,26.1166 L146.2345,26.1126 L146.2875,26.1256 C144.1165,36.3346 136.3965,41.9276 124.8775,41.8196" id="Fill-18" fill="#9DB73B"></path>
                <path d="M124.6119,40.2356 C123.5319,40.2246 122.4239,40.1616 121.2909,40.0426 L121.3109,39.8406 C127.1129,40.4496 132.2639,39.6156 136.2069,37.4276 C140.6839,34.9426 143.4659,30.8586 144.4779,25.2886 C144.8999,21.5056 144.8709,17.4066 144.8419,13.4446 C144.8309,11.6956 144.8169,9.8876 144.8459,8.1746 L145.0489,8.1776 C145.0189,9.8876 145.0329,11.6956 145.0449,13.4426 C145.0729,17.4066 145.1019,21.5046 144.6809,25.2946 L144.6769,25.3216 C143.6559,30.9556 140.8389,35.0886 136.3039,37.6046 C133.0969,39.3846 129.1009,40.2776 124.6119,40.2356" id="Fill-20" fill="#C6D12D"></path>
                <path d="M151.2105,3.4905 L151.1505,9.8375 C151.9395,9.0545 153.5815,7.8515 156.2655,7.7915 L156.3305,0.7325 C155.4535,0.8055 152.8765,1.2145 151.2105,3.4905 L151.2105,3.4905 Z M150.5275,11.6815 L150.6065,3.2945 L150.6615,3.2165 C152.8645,0.1115 156.4865,0.1095 156.6405,0.110466831 L156.9425,0.1135 L156.8655,8.3985 L156.5625,8.3955 C152.7825,8.3595 151.1595,10.7315 151.0935,10.8325 L150.5275,11.6815 Z" id="Fill-22" fill="#0C6635"></path>
                <path d="M145.3082,7.6887 C147.9912,7.7997 149.6102,9.0337 150.3832,9.8307 L150.4422,3.4837 C148.8192,1.1757 146.2502,0.7197 145.3742,0.6297 L145.3082,7.6887 Z M150.9722,11.6857 L150.4222,10.8267 C150.3572,10.7237 148.7792,8.3227 144.9992,8.2877 L144.6972,8.2847 L144.7742,0.0007 L145.0782,0.0027 C145.2302,0.0037 148.8522,0.0747 150.9962,3.2187 L151.0502,3.2977 L150.9722,11.6857 Z" id="Fill-24" fill="#0C6635"></path>
                <path d="M152.4615,46.1428 C152.4395,45.5818 151.9565,44.1508 151.7445,45.2428 C152.1615,45.6388 152.4205,47.8088 152.4615,46.1428 M153.7855,46.1968 C153.7775,45.9948 154.2675,45.7668 154.2355,45.5518 C154.2625,45.4228 153.4245,45.3098 153.9305,45.1468 C154.0185,45.1158 154.0745,45.0988 154.0995,45.0988 L154.1635,44.7418 C153.6415,44.8698 153.0475,45.5638 153.7975,45.8628 C153.1525,46.4228 153.4555,46.7678 154.2605,46.8258 L154.4285,46.4148 C154.1175,46.3478 153.9025,46.2748 153.7855,46.1968 M156.2905,44.8628 C156.1545,45.0248 155.8215,45.2338 155.6095,45.1508 C155.2825,44.6718 155.2035,44.9458 155.0785,45.1758 C155.5135,45.5458 155.6045,46.3648 155.8525,46.8788 C156.0715,46.7028 155.8915,45.9408 155.8155,45.6968 C156.1935,45.6988 156.4045,45.1728 156.2905,44.8628 M158.1535,46.2378 C157.0115,44.0088 157.7515,45.2998 156.6625,46.4648 C156.6255,47.6218 157.3835,45.6528 157.4335,45.5568 C157.6795,46.1068 158.0525,47.3138 158.3035,46.4038 C158.2365,46.3298 158.1875,46.2748 158.1535,46.2378" id="Fill-26" fill="#0C6635"></path>
                <g id="Group-30" transform="translate(149.000000, 45.879600)">
                    <mask id="mask-4" fill="white">
                        <use xlink:href="#path-3"></use>
                    </mask>
                    <g id="Clip-29"></g>
                    <polygon id="Fill-28" fill="#0C6635" mask="url(#mask-4)" points="0.4283 0.94 1.7903 0.953 1.7943 0.523 0.4323 0.51"></polygon>
                </g>
                <path d="M142.3111,46.2532 C144.1621,44.9562 142.2691,43.6212 141.7481,45.1152 L142.1551,45.1602 C142.1221,44.7492 142.7401,44.7102 142.7241,45.1152 C142.6301,45.6612 141.6751,46.0232 141.6851,46.6272 L143.1211,46.6412 L143.1241,46.2612 L142.3111,46.2532 Z M143.6231,44.7192 C143.3451,44.9982 143.3321,46.1632 143.5881,46.4412 C145.1541,47.7912 145.2291,43.4652 143.6231,44.7192 L143.6231,44.7192 Z M144.2381,44.8932 C144.4311,45.1632 144.4241,46.0302 144.2251,46.3012 C143.6461,46.6372 143.6631,44.5512 144.2381,44.8932 L144.2381,44.8932 Z M145.2831,44.7342 C144.7511,45.3732 145.1661,47.4072 146.2351,46.4872 C146.7611,45.8592 146.3541,43.8142 145.2831,44.7342 L145.2831,44.7342 Z M145.8971,44.9082 C146.1821,45.1482 146.0291,47.0042 145.5271,46.1262 C145.5031,45.8632 145.3391,44.6392 145.8971,44.9082 L145.8971,44.9082 Z M147.6641,44.9562 C147.2861,45.4182 147.0191,46.0852 147.0031,46.6772 L147.3981,46.6812 C147.3991,46.0872 147.7141,45.2922 148.1331,44.8782 L148.1361,44.5802 L146.7361,44.5672 L146.7321,44.9472 L147.6641,44.9562 Z" id="Fill-31" fill="#0C6635"></path>
                <path d="M3.4097,23.5315 C3.4097,23.4415 3.4427,23.3695 3.5107,23.3155 C3.5777,23.2615 3.6517,23.2355 3.7317,23.2355 L4.2567,23.2355 C4.3377,23.2355 4.4087,23.2615 4.4717,23.3155 C4.5347,23.3695 4.5657,23.4415 4.5657,23.5315 L4.5657,24.2575 C4.5657,24.3375 4.5347,24.4045 4.4717,24.4585 C4.4087,24.5115 4.3377,24.5395 4.2567,24.5395 L3.7317,24.5395 C3.6517,24.5395 3.5777,24.5115 3.5107,24.4585 C3.4427,24.4045 3.4097,24.3375 3.4097,24.2575 L3.4097,23.5315 Z M1.2197,23.5315 C1.2197,23.4415 1.2477,23.3695 1.3057,23.3155 C1.3647,23.2615 1.4377,23.2355 1.5277,23.2355 L2.0527,23.2355 C2.1417,23.2355 2.2157,23.2615 2.2737,23.3155 C2.3327,23.3695 2.3617,23.4415 2.3617,23.5315 L2.3617,24.2575 C2.3617,24.3375 2.3297,24.4045 2.2667,24.4585 C2.2047,24.5115 2.1337,24.5395 2.0527,24.5395 L1.5277,24.5395 C1.4377,24.5395 1.3647,24.5115 1.3057,24.4585 C1.2477,24.4045 1.2197,24.3375 1.2197,24.2575 L1.2197,23.5315 Z M1.1917,29.1895 C1.1917,29.7275 1.3127,30.1465 1.5557,30.4465 C1.7967,30.7475 2.2087,30.8975 2.7917,30.8975 L3.0467,30.8975 C3.1807,30.8975 3.3197,30.8875 3.4637,30.8705 C3.6067,30.8525 3.7367,30.8165 3.8537,30.7625 C3.9697,30.7095 4.0637,30.6355 4.1367,30.5415 C4.2077,30.4465 4.2437,30.3285 4.2437,30.1845 L4.2437,27.1335 C4.0637,27.1155 3.9067,27.1025 3.7727,27.0935 C3.6387,27.0845 3.5137,27.0795 3.3957,27.0795 C3.0737,27.0795 2.7777,27.1065 2.5097,27.1605 C2.2407,27.2145 2.0097,27.3105 1.8167,27.4495 C1.6247,27.5885 1.4727,27.7765 1.3597,28.0135 C1.2477,28.2515 1.1917,28.5505 1.1917,28.9075 L1.1917,29.1895 Z M0.0627,28.9885 C0.0627,28.4605 0.1477,28.0075 0.3187,27.6315 C0.4887,27.2545 0.7277,26.9475 1.0377,26.7105 C1.3467,26.4725 1.7147,26.2985 2.1397,26.1855 C2.5647,26.0735 3.0337,26.0175 3.5447,26.0175 C3.6607,26.0175 3.7957,26.0225 3.9477,26.0315 C4.0997,26.0405 4.2507,26.0535 4.3977,26.0715 C4.5457,26.0905 4.6867,26.1095 4.8217,26.1325 C4.9557,26.1545 5.0717,26.1785 5.1717,26.2055 C5.2607,26.2235 5.3157,26.2535 5.3387,26.2935 C5.3607,26.3335 5.3727,26.3895 5.3727,26.4615 L5.3727,30.2385 C5.3727,30.5965 5.4577,30.8275 5.6277,30.9305 C5.7987,31.0345 6.0267,31.0855 6.3137,31.0855 L6.6227,31.0855 L6.6227,32.2415 L6.1657,32.2415 C5.7627,32.2415 5.4237,32.1825 5.1507,32.0665 C4.8777,31.9505 4.6687,31.7485 4.5257,31.4615 C4.3737,31.6585 4.1387,31.8005 3.8197,31.8855 C3.5017,31.9695 3.1547,32.0125 2.7777,32.0125 L2.6567,32.0125 C1.8237,32.0125 1.1827,31.7845 0.7347,31.3275 C0.2867,30.8705 0.0627,30.2075 0.0627,29.3385 L0.0627,28.9885 Z" id="Fill-33" fill="#0C6635"></path>
                <path d="M8.9878,33.7874 C8.9878,33.6974 9.0218,33.6264 9.0888,33.5724 C9.1558,33.5174 9.2298,33.4914 9.3108,33.4914 L9.8348,33.4914 C9.9158,33.4914 9.9868,33.5174 10.0498,33.5724 C10.1128,33.6264 10.1438,33.6974 10.1438,33.7874 L10.1438,34.5134 C10.1438,34.5844 10.1128,34.6494 10.0498,34.7074 C9.9868,34.7664 9.9158,34.7954 9.8348,34.7954 L9.3108,34.7954 C9.2298,34.7954 9.1558,34.7664 9.0888,34.7074 C9.0218,34.6494 8.9878,34.5844 8.9878,34.5134 L8.9878,33.7874 Z M6.7978,33.7874 C6.7978,33.6974 6.8258,33.6264 6.8838,33.5724 C6.9428,33.5174 7.0168,33.4914 7.1058,33.4914 L7.6308,33.4914 C7.7198,33.4914 7.7938,33.5174 7.8518,33.5724 C7.9108,33.6264 7.9398,33.6974 7.9398,33.7874 L7.9398,34.5134 C7.9398,34.5844 7.9088,34.6494 7.8448,34.7074 C7.7828,34.7664 7.7118,34.7954 7.6308,34.7954 L7.1058,34.7954 C7.0168,34.7954 6.9428,34.7664 6.8838,34.7074 C6.8258,34.6494 6.7978,34.5844 6.7978,34.5134 L6.7978,33.7874 Z M6.0848,31.2604 C6.0848,31.2064 6.1298,31.1644 6.2188,31.1324 C6.3088,31.1004 6.4168,31.0854 6.5418,31.0854 L7.1468,31.0854 C7.2358,31.0854 7.3348,31.0814 7.4418,31.0714 C7.5508,31.0624 7.6528,31.0434 7.7518,31.0124 C7.8498,30.9794 7.9328,30.9314 8.0008,30.8634 C8.0678,30.7964 8.1008,30.7044 8.1008,30.5884 L8.1008,27.0654 C8.1008,26.9944 8.1258,26.9334 8.1758,26.8854 C8.2238,26.8364 8.2848,26.8104 8.3568,26.8104 L8.9748,26.8104 C9.0468,26.8104 9.1068,26.8364 9.1558,26.8854 C9.2058,26.9334 9.2298,26.9944 9.2298,27.0654 L9.2298,30.7634 C9.2578,30.8344 9.3128,30.8904 9.3978,30.9314 C9.4828,30.9714 9.5778,31.0024 9.6798,31.0244 C9.7838,31.0474 9.8888,31.0624 9.9968,31.0714 C10.1038,31.0814 10.1978,31.0854 10.2788,31.0854 L10.4668,31.0854 L10.4668,32.2414 L10.3048,32.2414 C10.0278,32.2414 9.7298,32.2124 9.4118,32.1544 C9.0928,32.0964 8.8318,31.9764 8.6258,31.7984 C8.4008,31.9764 8.1348,32.0964 7.8258,32.1544 C7.5158,32.2124 7.2358,32.2414 6.9848,32.2414 L6.5418,32.2414 C6.4168,32.2414 6.3088,32.2254 6.2188,32.1944 C6.1298,32.1624 6.0848,32.1154 6.0848,32.0534 L6.0848,31.2604 Z" id="Fill-35" fill="#0C6635"></path>
                <path d="M9.9292,31.26 C9.9292,31.206 9.9742,31.164 10.0632,31.132 C10.1532,31.101 10.2602,31.085 10.3862,31.085 L11.4612,31.085 C11.7212,31.085 11.8852,31.063 11.9512,31.018 C12.0192,30.973 12.0522,30.834 12.0522,30.601 L12.0522,22.402 C12.0522,22.33 12.0772,22.27 12.1262,22.221 C12.1752,22.171 12.2362,22.147 12.3082,22.147 L12.9662,22.147 C13.0382,22.147 13.0962,22.171 13.1412,22.221 C13.1862,22.27 13.2082,22.33 13.2082,22.402 L13.2082,30.157 L13.2082,30.521 C13.2082,30.656 13.2062,30.794 13.2012,30.938 C13.1982,31.081 13.1912,31.22 13.1822,31.354 C13.1722,31.489 13.1592,31.61 13.1412,31.717 C13.1232,31.807 13.0962,31.883 13.0612,31.946 C13.0252,32.008 12.9522,32.063 12.8452,32.107 C12.7742,32.134 12.6712,32.155 12.5362,32.167 C12.4022,32.181 12.2542,32.195 12.0922,32.207 C11.9322,32.221 11.7632,32.23 11.5882,32.235 C11.4132,32.239 11.2502,32.241 11.0982,32.241 L10.3862,32.241 C10.2602,32.241 10.1532,32.226 10.0632,32.195 C9.9742,32.162 9.9292,32.115 9.9292,32.053 L9.9292,31.26 Z" id="Fill-37" fill="#0C6635"></path>
                <path d="M15.4937,22.4016 C15.4937,22.3306 15.5187,22.2676 15.5677,22.2146 C15.6167,22.1606 15.6777,22.1326 15.7497,22.1326 L16.4077,22.1326 C16.4797,22.1326 16.5377,22.1606 16.5827,22.2146 C16.6277,22.2676 16.6497,22.3306 16.6497,22.4016 L16.6497,30.2926 C16.6497,30.4716 16.6707,30.6126 16.7107,30.7156 C16.7507,30.8186 16.8087,30.8976 16.8857,30.9506 C16.9617,31.0056 17.0557,31.0406 17.1677,31.0586 C17.2797,31.0766 17.4077,31.0856 17.5507,31.0856 L17.8867,31.0856 L17.8867,32.2416 L17.2557,32.2416 C16.9687,32.2416 16.7177,32.2166 16.5027,32.1676 C16.2877,32.1186 16.1027,32.0286 15.9507,31.8986 C15.7987,31.7686 15.6837,31.5956 15.6087,31.3806 C15.5317,31.1666 15.4937,30.8876 15.4937,30.5476 L15.4937,22.4016 Z" id="Fill-39" fill="#0C6635"></path>
                <path d="M20.3599,29.1233 L20.3599,29.7413 C20.3599,30.0373 20.3779,30.2883 20.4139,30.4933 C20.4939,30.8703 20.6689,31.1443 20.9379,31.3133 C21.2069,31.4833 21.5559,31.5683 21.9859,31.5683 C22.5779,31.5683 22.9939,31.4193 23.2359,31.1193 C23.4779,30.8183 23.5989,30.3593 23.5989,29.7413 L23.5989,29.1233 C23.5989,28.5143 23.4799,28.0453 23.2429,27.7183 C23.0059,27.3913 22.5949,27.2273 22.0129,27.2273 C21.4219,27.2273 20.9989,27.3893 20.7429,27.7113 C20.4869,28.0343 20.3599,28.5053 20.3599,29.1233 L20.3599,29.1233 Z M17.3479,31.2603 C17.3479,31.2063 17.3929,31.1643 17.4829,31.1323 C17.5729,31.1013 17.6799,31.0853 17.8049,31.0853 L18.2359,31.0853 C18.2979,31.0853 18.3809,31.0833 18.4839,31.0783 C18.5879,31.0743 18.6879,31.0593 18.7869,31.0313 C18.8849,31.0053 18.9729,30.9673 19.0489,30.9173 C19.1259,30.8683 19.1729,30.7983 19.1899,30.7093 C19.2169,30.6013 19.2299,30.4723 19.2299,30.3183 L19.2299,29.0283 C19.2299,28.1053 19.4699,27.3973 19.9499,26.9043 C20.4289,26.4123 21.1169,26.1653 22.0129,26.1653 C22.9089,26.1653 23.5859,26.4073 24.0429,26.8923 C24.4999,27.3753 24.7279,28.0883 24.7279,29.0283 L24.7279,29.7813 C24.7279,29.8893 24.7259,30.0053 24.7209,30.1313 C24.7159,30.2563 24.7059,30.3683 24.6879,30.4673 C24.6969,30.5933 24.7419,30.6953 24.8229,30.7753 C24.9029,30.8563 24.9949,30.9203 25.0969,30.9643 C25.2009,31.0093 25.3059,31.0403 25.4139,31.0593 C25.5209,31.0763 25.6109,31.0853 25.6819,31.0853 L25.8569,31.0853 L25.8569,32.2413 L25.6819,32.2413 C25.3859,32.2413 25.0969,32.1993 24.8149,32.1133 C24.5339,32.0283 24.3069,31.8963 24.1359,31.7173 C23.7149,32.3263 22.9989,32.6313 21.9859,32.6313 C21.4839,32.6313 21.0389,32.5573 20.6489,32.4093 C20.2579,32.2623 19.9609,32.0353 19.7549,31.7303 C19.5759,31.9363 19.3419,32.0733 19.0549,32.1403 C18.7689,32.2073 18.4599,32.2413 18.1289,32.2413 L17.8049,32.2413 C17.6799,32.2413 17.5729,32.2263 17.4829,32.1943 C17.3929,32.1623 17.3479,32.1153 17.3479,32.0533 L17.3479,31.2603 Z" id="Fill-41" fill="#0C6635"></path>
                <path d="M31.5289,24.4456 C31.5289,24.3556 31.5629,24.2816 31.6309,24.2226 C31.6979,24.1656 31.7709,24.1356 31.8519,24.1356 L32.3769,24.1356 C32.4569,24.1356 32.5289,24.1656 32.5909,24.2226 C32.6539,24.2816 32.6859,24.3556 32.6859,24.4456 L32.6859,25.1176 C32.6859,25.1976 32.6539,25.2646 32.5909,25.3186 C32.5289,25.3726 32.4569,25.3996 32.3769,25.3996 L31.8519,25.3996 C31.7709,25.3996 31.6979,25.3726 31.6309,25.3186 C31.5629,25.2646 31.5289,25.1976 31.5289,25.1176 L31.5289,24.4456 Z M30.4669,22.7786 C30.4669,22.6976 30.4989,22.6306 30.5609,22.5766 C30.6239,22.5226 30.6959,22.4966 30.7769,22.4966 L31.2739,22.4966 C31.3549,22.4966 31.4259,22.5226 31.4889,22.5766 C31.5509,22.6306 31.5839,22.6976 31.5839,22.7786 L31.5839,23.3836 C31.5839,23.4726 31.5499,23.5426 31.4819,23.5916 C31.4159,23.6406 31.3419,23.6656 31.2599,23.6656 L30.7629,23.6656 C30.6829,23.6656 30.6129,23.6406 30.5549,23.5916 C30.4969,23.5426 30.4669,23.4726 30.4669,23.3836 L30.4669,22.7786 Z M29.3389,24.4456 C29.3389,24.3556 29.3679,24.2816 29.4259,24.2226 C29.4839,24.1656 29.5579,24.1356 29.6479,24.1356 L30.1719,24.1356 C30.2609,24.1356 30.3359,24.1656 30.3939,24.2226 C30.4519,24.2816 30.4809,24.3556 30.4809,24.4456 L30.4809,25.1176 C30.4809,25.1976 30.4499,25.2646 30.3859,25.3186 C30.3239,25.3726 30.2529,25.3996 30.1719,25.3996 L29.6479,25.3996 C29.5579,25.3996 29.4839,25.3726 29.4259,25.3186 C29.3679,25.2646 29.3389,25.1976 29.3389,25.1176 L29.3389,24.4456 Z M25.3199,31.2596 C25.3199,31.2066 25.3649,31.1646 25.4539,31.1326 C25.5439,31.1006 25.6509,31.0856 25.7759,31.0856 L26.2879,31.0856 C26.3769,31.0856 26.4749,31.0816 26.5829,31.0716 C26.6899,31.0626 26.7919,31.0436 26.8849,31.0116 C26.9789,30.9796 27.0599,30.9306 27.1279,30.8636 C27.1949,30.7966 27.2279,30.7046 27.2279,30.5886 L27.2279,27.6846 C27.2279,27.6126 27.2509,27.5496 27.2959,27.4966 C27.3409,27.4426 27.3979,27.4156 27.4699,27.4156 L28.0889,27.4156 C28.1599,27.4156 28.2179,27.4426 28.2629,27.4966 C28.3079,27.5496 28.3309,27.6126 28.3309,27.6846 L28.3309,30.7906 C28.3569,30.8616 28.4139,30.9176 28.4989,30.9576 C28.5839,30.9986 28.6769,31.0296 28.7809,31.0516 C28.8829,31.0746 28.9889,31.0906 29.0959,31.0986 C29.2039,31.1076 29.2989,31.1126 29.3789,31.1126 L29.6609,31.1126 C29.7419,31.1126 29.8339,31.1056 29.9369,31.0916 C30.0399,31.0786 30.1359,31.0566 30.2259,31.0246 C30.3149,30.9936 30.3909,30.9466 30.4539,30.8836 C30.5159,30.8216 30.5489,30.7356 30.5489,30.6286 L30.5489,27.2276 C30.5489,27.1556 30.5729,27.0956 30.6229,27.0466 C30.6719,26.9976 30.7319,26.9716 30.8029,26.9716 L31.4219,26.9716 C31.4939,26.9716 31.5509,26.9976 31.5959,27.0466 C31.6409,27.0956 31.6639,27.1556 31.6639,27.2276 L31.6639,30.7906 C31.7179,30.9326 31.8519,31.0226 32.0669,31.0586 C32.2819,31.0936 32.5069,31.1126 32.7389,31.1126 L32.9139,31.1126 C32.9949,31.1126 33.0909,31.1076 33.2029,31.0986 C33.3149,31.0906 33.4209,31.0696 33.5189,31.0386 C33.6179,31.0076 33.7009,30.9576 33.7669,30.8896 C33.8349,30.8236 33.8689,30.7356 33.8689,30.6286 L33.8689,26.7166 C33.8689,26.6446 33.8929,26.5846 33.9419,26.5356 C33.9919,26.4866 34.0509,26.4616 34.1239,26.4616 L34.7559,26.4616 C34.8269,26.4616 34.8849,26.4866 34.9299,26.5356 C34.9749,26.5846 34.9979,26.6446 34.9979,26.7166 L34.9979,30.7626 C35.0239,30.8346 35.0829,30.8896 35.1729,30.9306 C35.2609,30.9706 35.3609,31.0026 35.4679,31.0246 C35.5759,31.0476 35.6829,31.0626 35.7909,31.0716 C35.8979,31.0816 35.9919,31.0856 36.0729,31.0856 L36.3289,31.0856 L36.3289,32.2416 L36.0989,32.2416 C35.8579,32.2416 35.5799,32.2126 35.2659,32.1546 C34.9529,32.0956 34.6789,31.9766 34.4459,31.7986 C34.2399,31.9766 33.9939,32.0956 33.7069,32.1546 C33.4209,32.2126 33.1469,32.2416 32.8869,32.2416 L32.6719,32.2416 C32.3579,32.2416 32.0779,32.2126 31.8319,32.1546 C31.5859,32.0956 31.3419,31.9766 31.0989,31.7986 C30.7409,32.0926 30.2209,32.2416 29.5409,32.2416 L29.3109,32.2416 C29.0789,32.2416 28.8209,32.2126 28.5389,32.1546 C28.2569,32.0956 28.0119,31.9766 27.8059,31.7986 C27.6989,31.8966 27.5749,31.9726 27.4359,32.0266 C27.2979,32.0806 27.1559,32.1256 27.0129,32.1606 C26.8699,32.1966 26.7289,32.2186 26.5899,32.2276 C26.4509,32.2366 26.3229,32.2416 26.2069,32.2416 L25.7759,32.2416 C25.6509,32.2416 25.5439,32.2256 25.4539,32.1946 C25.3649,32.1626 25.3199,32.1156 25.3199,32.0526 L25.3199,31.2596 Z" id="Fill-43" fill="#0C6635"></path>
                <path d="M35.7906,31.26 C35.7906,31.206 35.8356,31.164 35.9246,31.132 C36.0146,31.101 36.1216,31.085 36.2476,31.085 L37.3226,31.085 C37.5826,31.085 37.7466,31.063 37.8126,31.018 C37.8806,30.973 37.9146,30.834 37.9146,30.601 L37.9146,22.402 C37.9146,22.33 37.9386,22.27 37.9876,22.221 C38.0376,22.171 38.0986,22.147 38.1696,22.147 L38.8286,22.147 C38.8996,22.147 38.9586,22.171 39.0036,22.221 C39.0476,22.27 39.0696,22.33 39.0696,22.402 L39.0696,30.157 L39.0696,30.521 C39.0696,30.656 39.0676,30.794 39.0636,30.938 C39.0596,31.081 39.0526,31.22 39.0436,31.354 C39.0346,31.489 39.0206,31.61 39.0036,31.717 C38.9846,31.807 38.9586,31.883 38.9226,31.946 C38.8866,32.008 38.8146,32.063 38.7076,32.107 C38.6366,32.134 38.5326,32.155 38.3976,32.167 C38.2646,32.181 38.1156,32.195 37.9546,32.207 C37.7936,32.221 37.6256,32.23 37.4506,32.235 C37.2756,32.239 37.1116,32.241 36.9596,32.241 L36.2476,32.241 C36.1216,32.241 36.0146,32.226 35.9246,32.195 C35.8356,32.162 35.7906,32.115 35.7906,32.053 L35.7906,31.26 Z" id="Fill-45" fill="#0C6635"></path>
                <path d="M41.355,22.4016 C41.355,22.3306 41.38,22.2676 41.429,22.2146 C41.478,22.1606 41.539,22.1326 41.611,22.1326 L42.269,22.1326 C42.341,22.1326 42.399,22.1606 42.444,22.2146 C42.489,22.2676 42.511,22.3306 42.511,22.4016 L42.511,31.9726 C42.511,32.0446 42.489,32.1066 42.444,32.1606 C42.399,32.2146 42.341,32.2416 42.269,32.2416 L41.611,32.2416 C41.539,32.2416 41.478,32.2146 41.429,32.1606 C41.38,32.1066 41.355,32.0446 41.355,31.9726 L41.355,22.4016 Z" id="Fill-47" fill="#0C6635"></path>
                <path d="M47.6597,31.3274 C47.6597,31.2564 47.6857,31.1974 47.7397,31.1524 C47.7947,31.1074 47.8567,31.0854 47.9287,31.0854 L51.5977,31.0854 L51.5847,29.4314 C51.5667,28.6434 51.3667,28.0564 50.9857,27.6714 C50.6047,27.2854 49.9897,27.0934 49.1387,27.0934 C49.0397,27.0934 48.8997,27.0964 48.7217,27.0994 C48.5417,27.1044 48.3857,27.1154 48.2507,27.1334 C48.0717,27.1514 47.9817,27.0884 47.9817,26.9454 L47.9817,26.3944 C47.9817,26.3224 48.0017,26.2654 48.0427,26.2204 C48.0827,26.1754 48.1517,26.1474 48.2507,26.1394 C48.4837,26.1024 48.7057,26.0804 48.9167,26.0714 C49.1267,26.0624 49.2817,26.0574 49.3807,26.0574 C49.9897,26.0574 50.5027,26.1394 50.9197,26.3004 C51.3357,26.4614 51.6747,26.6894 51.9337,26.9854 C52.1937,27.2814 52.3827,27.6314 52.4987,28.0344 C52.6147,28.4374 52.6817,28.8814 52.6997,29.3644 C52.6997,29.4004 52.7017,29.4904 52.7067,29.6334 C52.7117,29.7774 52.7157,29.9334 52.7207,30.1034 C52.7237,30.2744 52.7267,30.4354 52.7267,30.5884 L52.7267,30.8974 L52.7267,31.1394 C52.7267,31.2284 52.7217,31.3274 52.7137,31.4344 L52.7137,31.7304 C52.7047,31.8294 52.6957,31.9104 52.6867,31.9734 C52.6867,32.1514 52.5877,32.2414 52.3907,32.2414 L47.9287,32.2414 C47.8567,32.2414 47.7947,32.2214 47.7397,32.1814 C47.6857,32.1394 47.6597,32.0844 47.6597,32.0134 L47.6597,31.3274 Z" id="Fill-49" fill="#0C6635"></path>
                <path d="M58.6001,27.1604 C58.4211,27.1424 58.2461,27.1294 58.0771,27.1204 C57.9061,27.1104 57.7041,27.1064 57.4711,27.1064 C56.8801,27.1064 56.4121,27.2724 56.0671,27.6034 C55.7211,27.9354 55.5491,28.4104 55.5491,29.0284 L55.5491,29.2984 C55.5491,29.9334 55.6841,30.3954 55.9531,30.6814 C56.2211,30.9694 56.6781,31.1124 57.3241,31.1124 C57.6731,31.1124 57.9731,31.0904 58.2241,31.0454 C58.4751,31.0004 58.6001,30.8754 58.6001,30.6684 L58.6001,27.1604 Z M54.8901,34.4994 C54.8901,34.3744 54.9621,34.3104 55.1061,34.3104 C55.2571,34.3104 55.4511,34.3134 55.6841,34.3174 C55.9161,34.3224 56.1051,34.3254 56.2481,34.3254 C56.6071,34.3254 56.9291,34.3054 57.2151,34.2644 C57.5021,34.2234 57.7461,34.1474 57.9491,34.0354 C58.1511,33.9244 58.3071,33.7664 58.4191,33.5654 C58.5311,33.3634 58.5871,33.1014 58.5871,32.7784 L58.5871,31.9854 C58.5251,32.0404 58.4321,32.0824 58.3111,32.1134 C58.1911,32.1444 58.0561,32.1724 57.9091,32.1944 C57.7601,32.2174 57.6151,32.2294 57.4711,32.2344 C57.3281,32.2394 57.2031,32.2414 57.0951,32.2414 C56.2801,32.2414 55.6291,32.0084 55.1461,31.5424 C54.6621,31.0764 54.4201,30.3734 54.4201,29.4314 L54.4201,29.0964 C54.4201,28.1554 54.6981,27.4114 55.2531,26.8644 C55.8091,26.3174 56.5971,26.0454 57.6201,26.0454 C57.9771,26.0454 58.3251,26.0604 58.6611,26.0924 C58.9961,26.1234 59.2821,26.1754 59.5151,26.2464 C59.6041,26.2724 59.6621,26.3024 59.6901,26.3334 C59.7161,26.3644 59.7301,26.4174 59.7301,26.4884 L59.7301,32.5774 C59.7301,33.1334 59.6491,33.5904 59.4881,33.9484 C59.3271,34.3064 59.1021,34.5914 58.8161,34.8024 C58.5291,35.0124 58.1881,35.1604 57.7941,35.2454 C57.4001,35.3304 56.9651,35.3734 56.4901,35.3734 C56.4001,35.3734 56.2841,35.3684 56.1401,35.3594 L55.7381,35.3594 C55.5941,35.3504 55.4641,35.3424 55.3471,35.3334 C55.2311,35.3234 55.1501,35.3144 55.1061,35.3064 C55.0161,35.2884 54.9571,35.2644 54.9311,35.2314 C54.9041,35.2004 54.8901,35.1534 54.8901,35.0914 L54.8901,34.4994 Z" id="Fill-51" fill="#0C6635"></path>
                <path d="M61.4234,31.3274 C61.4234,31.2564 61.4494,31.1974 61.5034,31.1524 C61.5584,31.1074 61.6204,31.0854 61.6924,31.0854 L65.3614,31.0854 L65.3484,29.4314 C65.3304,28.6434 65.1334,28.0564 64.7564,27.6714 C64.3804,27.2854 63.7664,27.0934 62.9154,27.0934 C62.8174,27.0934 62.6754,27.0964 62.4914,27.0994 C62.3084,27.1044 62.1494,27.1154 62.0154,27.1334 C61.8354,27.1514 61.7454,27.0884 61.7454,26.9454 L61.7454,26.3944 C61.7454,26.3224 61.7664,26.2654 61.8064,26.2204 C61.8464,26.1754 61.9154,26.1474 62.0154,26.1394 C62.2474,26.1024 62.4694,26.0804 62.6804,26.0714 C62.8914,26.0624 63.0454,26.0574 63.1444,26.0574 C63.7434,26.0574 64.2544,26.1394 64.6764,26.3004 C65.0974,26.4614 65.4384,26.6894 65.6974,26.9854 C65.9574,27.2814 66.1484,27.6314 66.2694,28.0344 C66.3904,28.4374 66.4594,28.8814 66.4774,29.3644 L66.4904,31.0854 L67.3784,31.0854 L67.3784,32.2414 L61.6924,32.2414 C61.6204,32.2414 61.5584,32.2214 61.5034,32.1814 C61.4494,32.1394 61.4234,32.0844 61.4234,32.0134 L61.4234,31.3274 Z" id="Fill-53" fill="#0C6635"></path>
                <path d="M67.3238,32.2415 C67.1808,32.2415 67.0688,32.2205 66.9888,32.1805 C66.9078,32.1395 66.8678,32.0975 66.8678,32.0535 L66.8678,31.2605 C66.8678,31.2065 66.9118,31.1645 67.0018,31.1325 C67.0918,31.1005 67.1988,31.0855 67.3238,31.0855 L73.5608,31.0855 L73.0778,29.9295 L72.7678,29.2175 C72.4718,28.5275 72.0808,28.0155 71.5928,27.6845 C71.1028,27.3525 70.4378,27.1875 69.5958,27.1875 C69.5238,27.1875 69.3858,27.1935 69.1788,27.2075 C68.9728,27.2205 68.7938,27.2365 68.6408,27.2545 C68.4438,27.2725 68.3458,27.2105 68.3458,27.0655 L68.3458,26.5145 C68.3458,26.4435 68.3638,26.3875 68.3998,26.3465 C68.4348,26.3065 68.5028,26.2775 68.6008,26.2605 C68.7898,26.2155 68.9978,26.1835 69.2258,26.1655 C69.4548,26.1475 69.6718,26.1385 69.8788,26.1385 C70.3268,26.1385 70.7478,26.1815 71.1418,26.2665 C71.5358,26.3515 71.9078,26.5085 72.2578,26.7365 C72.6068,26.9665 72.9288,27.2795 73.2248,27.6785 C73.5208,28.0765 73.7988,28.5905 74.0588,29.2175 L74.2068,29.5665 L74.7448,30.9245 C74.7888,30.9965 74.8248,31.0405 74.8518,31.0585 C74.8788,31.0765 74.9278,31.0855 74.9998,31.0855 L75.0948,31.0855 L75.0948,32.2415 L67.3238,32.2415 Z" id="Fill-55" fill="#0C6635"></path>
                <path d="M74.5289,31.26 C74.5289,31.206 74.5739,31.164 74.6639,31.132 C74.7539,31.101 74.8609,31.085 74.9859,31.085 L76.0609,31.085 C76.3209,31.085 76.4849,31.063 76.5519,31.018 C76.6189,30.973 76.6529,30.834 76.6529,30.601 L76.6529,22.402 C76.6529,22.33 76.6769,22.27 76.7259,22.221 C76.7759,22.171 76.8369,22.147 76.9079,22.147 L77.5669,22.147 C77.6379,22.147 77.6969,22.171 77.7419,22.221 C77.7869,22.27 77.8089,22.33 77.8089,22.402 L77.8089,30.157 L77.8089,30.521 C77.8089,30.656 77.8059,30.794 77.8019,30.938 C77.7979,31.081 77.7909,31.22 77.7819,31.354 C77.7729,31.489 77.7589,31.61 77.7419,31.717 C77.7229,31.807 77.6969,31.883 77.6609,31.946 C77.6249,32.008 77.5529,32.063 77.4459,32.107 C77.3749,32.134 77.2709,32.155 77.1359,32.167 C77.0029,32.181 76.8539,32.195 76.6929,32.207 C76.5319,32.221 76.3639,32.23 76.1889,32.235 C76.0139,32.239 75.8509,32.241 75.6989,32.241 L74.9859,32.241 C74.8609,32.241 74.7539,32.226 74.6639,32.195 C74.5739,32.162 74.5289,32.115 74.5289,32.053 L74.5289,31.26 Z" id="Fill-57" fill="#0C6635"></path>
                <path d="M80.0943,22.4016 C80.0943,22.3306 80.1183,22.2676 80.1673,22.2146 C80.2173,22.1606 80.2773,22.1326 80.3493,22.1326 L81.0073,22.1326 C81.0793,22.1326 81.1373,22.1606 81.1823,22.2146 C81.2273,22.2676 81.2493,22.3306 81.2493,22.4016 L81.2493,31.9726 C81.2493,32.0446 81.2273,32.1066 81.1823,32.1606 C81.1373,32.2146 81.0793,32.2416 81.0073,32.2416 L80.3493,32.2416 C80.2773,32.2416 80.2173,32.2146 80.1673,32.1606 C80.1183,32.1066 80.0943,32.0446 80.0943,31.9726 L80.0943,22.4016 Z" id="Fill-59" fill="#0C6635"></path>
                <path d="M89.9732,23.5315 C89.9732,23.4415 90.0062,23.3695 90.0742,23.3155 C90.1412,23.2615 90.2152,23.2355 90.2952,23.2355 L90.8202,23.2355 C90.9012,23.2355 90.9722,23.2615 91.0352,23.3155 C91.0982,23.3695 91.1292,23.4415 91.1292,23.5315 L91.1292,24.2575 C91.1292,24.3375 91.0982,24.4045 91.0352,24.4585 C90.9722,24.5115 90.9012,24.5395 90.8202,24.5395 L90.2952,24.5395 C90.2152,24.5395 90.1412,24.5115 90.0742,24.4585 C90.0062,24.4045 89.9732,24.3375 89.9732,24.2575 L89.9732,23.5315 Z M87.7832,23.5315 C87.7832,23.4415 87.8112,23.3695 87.8692,23.3155 C87.9282,23.2615 88.0012,23.2355 88.0912,23.2355 L88.6162,23.2355 C88.7052,23.2355 88.7792,23.2615 88.8372,23.3155 C88.8962,23.3695 88.9252,23.4415 88.9252,23.5315 L88.9252,24.2575 C88.9252,24.3375 88.8932,24.4045 88.8302,24.4585 C88.7682,24.5115 88.6962,24.5395 88.6162,24.5395 L88.0912,24.5395 C88.0012,24.5395 87.9282,24.5115 87.8692,24.4585 C87.8112,24.4045 87.7832,24.3375 87.7832,24.2575 L87.7832,23.5315 Z M87.7552,29.1895 C87.7552,29.7275 87.8762,30.1465 88.1192,30.4465 C88.3602,30.7475 88.7722,30.8975 89.3552,30.8975 L89.6102,30.8975 C89.7442,30.8975 89.8832,30.8875 90.0272,30.8705 C90.1702,30.8525 90.3002,30.8165 90.4172,30.7625 C90.5332,30.7095 90.6272,30.6355 90.6992,30.5415 C90.7712,30.4465 90.8072,30.3285 90.8072,30.1845 L90.8072,27.1335 C90.6272,27.1155 90.4702,27.1025 90.3362,27.0935 C90.2022,27.0845 90.0762,27.0795 89.9592,27.0795 C89.6372,27.0795 89.3412,27.1065 89.0732,27.1605 C88.8042,27.2145 88.5732,27.3105 88.3802,27.4495 C88.1882,27.5885 88.0362,27.7765 87.9232,28.0135 C87.8112,28.2515 87.7552,28.5505 87.7552,28.9075 L87.7552,29.1895 Z M86.6262,28.9885 C86.6262,28.4605 86.7112,28.0075 86.8822,27.6315 C87.0522,27.2545 87.2912,26.9475 87.6012,26.7105 C87.9102,26.4725 88.2772,26.2985 88.7032,26.1855 C89.1282,26.0735 89.5972,26.0175 90.1082,26.0175 C90.2242,26.0175 90.3582,26.0225 90.5112,26.0315 C90.6632,26.0405 90.8142,26.0535 90.9612,26.0715 C91.1092,26.0905 91.2502,26.1095 91.3852,26.1325 C91.5192,26.1545 91.6352,26.1785 91.7342,26.2055 C91.8242,26.2235 91.8792,26.2535 91.9022,26.2935 C91.9242,26.3335 91.9362,26.3895 91.9362,26.4615 L91.9362,30.2385 C91.9362,30.5965 92.0212,30.8275 92.1912,30.9305 C92.3612,31.0345 92.5902,31.0855 92.8762,31.0855 L93.1862,31.0855 L93.1862,32.2415 L92.7292,32.2415 C92.3262,32.2415 91.9872,32.1825 91.7142,32.0665 C91.4412,31.9505 91.2322,31.7485 91.0882,31.4615 C90.9372,31.6585 90.7022,31.8005 90.3832,31.8855 C90.0652,31.9695 89.7182,32.0125 89.3412,32.0125 L89.2202,32.0125 C88.3872,32.0125 87.7462,31.7845 87.2982,31.3275 C86.8502,30.8705 86.6262,30.2075 86.6262,29.3385 L86.6262,28.9885 Z" id="Fill-61" fill="#0C6635"></path>
                <path d="M97.4468,31.0989 C97.9128,30.9919 98.2778,30.7319 98.5428,30.3189 C98.8068,29.9079 98.9388,29.4279 98.9388,28.8809 L98.9388,28.7329 C98.9388,28.1419 98.7688,27.7139 98.4278,27.4499 C98.0878,27.1849 97.6218,27.0529 97.0308,27.0529 C96.7978,27.0529 96.4968,27.0839 96.1298,27.1469 C95.7618,27.2099 95.4128,27.3529 95.0818,27.5779 L96.4528,31.0989 L97.4468,31.0989 Z M92.6478,31.2599 C92.6478,31.2059 92.6928,31.1639 92.7828,31.1319 C92.8728,31.1009 92.9798,31.0849 93.1048,31.0849 L95.2688,31.0849 L94.0058,27.8599 C93.9878,27.8319 93.9768,27.7969 93.9718,27.7519 C93.9678,27.7069 93.9658,27.6669 93.9658,27.6309 L93.9788,27.2409 C93.9878,27.1249 94.0638,27.0079 94.2078,26.8919 C94.3598,26.7569 94.5418,26.6339 94.7518,26.5219 C94.9628,26.4099 95.1928,26.3159 95.4438,26.2399 C95.6948,26.1629 95.9548,26.1029 96.2228,26.0579 C96.4928,26.0129 96.7608,25.9909 97.0308,25.9909 C97.4688,25.9909 97.8748,26.0399 98.2468,26.1389 C98.6188,26.2379 98.9388,26.3919 99.2078,26.6029 C99.4758,26.8139 99.6848,27.0839 99.8328,27.4149 C99.9808,27.7469 100.0538,28.1419 100.0538,28.5989 L100.0538,28.8539 C100.0538,29.0689 100.0318,29.2879 99.9868,29.5129 C99.9428,29.7369 99.8798,29.9499 99.7998,30.1519 C99.7178,30.3529 99.6228,30.5369 99.5098,30.7029 C99.3978,30.8689 99.2748,30.9959 99.1408,31.0849 L100.8348,31.0849 L100.8348,32.2419 L93.1048,32.2419 C92.9798,32.2419 92.8728,32.2259 92.7828,32.1949 C92.6928,32.1619 92.6478,32.1159 92.6478,32.0529 L92.6478,31.2599 Z" id="Fill-63" fill="#0C6635"></path>
                <path d="M103.3072,29.6331 C103.3072,29.9201 103.3252,30.1671 103.3612,30.3731 C103.4512,30.7681 103.6292,31.0341 103.8992,31.1721 C104.1672,31.3121 104.5122,31.3811 104.9342,31.3811 C105.5252,31.3811 105.9422,31.2391 106.1842,30.9571 C106.4252,30.6751 106.5462,30.2031 106.5462,29.5391 L106.5462,29.0421 C106.5462,28.4331 106.4272,27.9621 106.1902,27.6311 C105.9532,27.3001 105.5432,27.1331 104.9602,27.1331 C104.3692,27.1331 103.9462,27.2971 103.6902,27.6241 C103.4352,27.9511 103.3072,28.4241 103.3072,29.0421 L103.3072,29.6331 Z M100.2962,31.2601 C100.2962,31.2061 100.3412,31.1641 100.4302,31.1321 C100.5202,31.1011 100.6272,31.0851 100.7532,31.0851 L101.1832,31.0851 C101.2452,31.0851 101.3272,31.0811 101.4252,31.0711 C101.5242,31.0631 101.6222,31.0401 101.7212,31.0051 C101.8202,30.9691 101.9072,30.9221 101.9832,30.8631 C102.0592,30.8051 102.1112,30.7231 102.1382,30.6151 C102.1642,30.5071 102.1782,30.3781 102.1782,30.2251 L102.1782,28.9351 C102.1782,28.0121 102.4172,27.3041 102.8972,26.8111 C103.3762,26.3181 104.0642,26.0711 104.9602,26.0711 C105.8562,26.0711 106.5342,26.3141 106.9912,26.7971 C107.4472,27.2811 107.6762,27.9891 107.6762,28.9211 L107.6762,29.6071 C107.6762,30.5381 107.4602,31.2441 107.0312,31.7241 C106.6002,32.2031 105.9022,32.4431 104.9342,32.4431 C104.4312,32.4431 103.9902,32.3731 103.6102,32.2351 C103.2292,32.0961 102.9262,31.8831 102.7032,31.5961 C102.5502,31.8381 102.3172,32.0061 102.0032,32.1001 C101.6902,32.1951 101.3452,32.2411 100.9682,32.2411 L100.7532,32.2411 C100.6272,32.2411 100.5202,32.2261 100.4302,32.1951 C100.3412,32.1621 100.2962,32.1151 100.2962,32.0531 L100.2962,31.2601 Z" id="Fill-65" fill="#0C6635"></path>
                <path d="M109.7593,22.4016 C109.7593,22.3306 109.7833,22.2676 109.8323,22.2146 C109.8823,22.1606 109.9433,22.1326 110.0143,22.1326 L110.6733,22.1326 C110.7443,22.1326 110.8033,22.1606 110.8483,22.2146 C110.8923,22.2676 110.9143,22.3306 110.9143,22.4016 L110.9143,30.2926 C110.9143,30.4716 110.9353,30.6126 110.9753,30.7156 C111.0153,30.8186 111.0733,30.8976 111.1503,30.9506 C111.2263,31.0056 111.3203,31.0406 111.4323,31.0586 C111.5443,31.0766 111.6723,31.0856 111.8163,31.0856 L112.1523,31.0856 L112.1523,32.2416 L111.5203,32.2416 C111.2333,32.2416 110.9823,32.2166 110.7673,32.1676 C110.5523,32.1186 110.3683,32.0286 110.2163,31.8986 C110.0643,31.7686 109.9493,31.5956 109.8733,31.3806 C109.7973,31.1666 109.7593,30.8876 109.7593,30.5476 L109.7593,22.4016 Z" id="Fill-67" fill="#0C6635"></path>
                <path d="M114.8667,33.7874 C114.8667,33.6974 114.8977,33.6264 114.9617,33.5724 C115.0237,33.5174 115.0957,33.4914 115.1767,33.4914 L115.7547,33.4914 C115.8347,33.4914 115.9067,33.5174 115.9697,33.5724 C116.0317,33.6264 116.0627,33.6974 116.0627,33.7874 L116.0627,34.5134 C116.0627,34.5844 116.0317,34.6494 115.9697,34.7074 C115.9067,34.7664 115.8347,34.7954 115.7547,34.7954 L115.1767,34.7954 C115.0957,34.7954 115.0237,34.7664 114.9617,34.7074 C114.8977,34.6494 114.8667,34.5844 114.8667,34.5134 L114.8667,33.7874 Z M111.6137,31.2604 C111.6137,31.2064 111.6587,31.1644 111.7487,31.1324 C111.8387,31.1004 111.9457,31.0854 112.0707,31.0854 L118.3077,31.0854 L117.8237,29.9304 L117.5147,29.2174 C117.2197,28.5364 116.8277,28.0274 116.3387,27.6914 C115.8497,27.3554 115.1847,27.1874 114.3427,27.1874 C114.3067,27.1874 114.2507,27.1894 114.1747,27.1934 C114.0977,27.1984 114.0127,27.2054 113.9197,27.2144 C113.8247,27.2234 113.7307,27.2294 113.6377,27.2344 C113.5427,27.2384 113.4597,27.2454 113.3877,27.2544 C113.1907,27.2724 113.0927,27.2104 113.0927,27.0654 L113.0927,26.5154 C113.0927,26.4434 113.1107,26.3874 113.1457,26.3474 C113.1817,26.3074 113.2497,26.2774 113.3477,26.2604 C113.5447,26.2154 113.7667,26.1834 114.0127,26.1654 C114.2607,26.1474 114.4637,26.1394 114.6247,26.1394 C115.0727,26.1394 115.4937,26.1824 115.8877,26.2664 C116.2827,26.3514 116.6547,26.5084 117.0047,26.7364 C117.3537,26.9664 117.6767,27.2794 117.9717,27.6784 C118.2667,28.0764 118.5457,28.5904 118.8047,29.2174 L118.9397,29.5664 L119.5047,31.0054 C119.5217,31.0674 119.5377,31.1304 119.5517,31.1924 C119.5647,31.2564 119.5717,31.3364 119.5717,31.4344 L119.5717,31.9184 C119.5717,32.0174 119.5447,32.0964 119.4907,32.1544 C119.4367,32.2124 119.3347,32.2414 119.1817,32.2414 L112.0707,32.2414 C111.9367,32.2414 111.8267,32.2214 111.7417,32.1814 C111.6567,32.1404 111.6137,32.0984 111.6137,32.0534 L111.6137,31.2604 Z" id="Fill-69" fill="#0C6635"></path>
                <path d="M4.4556,42.7698 C4.4556,42.8348 4.4336,42.8908 4.3866,42.9378 C4.3396,42.9848 4.2836,43.0078 4.2186,43.0078 L3.7086,43.0078 C3.5766,43.0078 3.4896,42.9638 3.4456,42.8758 L0.9076,38.0538 C0.8956,38.0388 0.8886,38.0298 0.8826,38.0298 C0.8776,38.0298 0.8746,38.0388 0.8746,38.0538 L0.8746,42.8518 C0.8746,42.8958 0.8606,42.9328 0.8336,42.9618 C0.8066,42.9928 0.7696,43.0078 0.7266,43.0078 L0.2996,43.0078 C0.2556,43.0078 0.2206,43.0018 0.1926,42.9918 C0.1656,42.9808 0.1516,42.9528 0.1516,42.9098 L0.1516,37.1338 C0.1516,37.0688 0.1746,37.0138 0.2216,36.9698 C0.2686,36.9258 0.3236,36.9038 0.3906,36.9038 L0.8416,36.9038 C0.9566,36.9038 1.0326,36.9158 1.0716,36.9408 C1.1096,36.9658 1.1456,37.0078 1.1786,37.0688 L3.7006,41.8658 L3.7176,41.8908 C3.7226,41.8908 3.7256,41.8818 3.7256,41.8658 L3.7256,37.0598 C3.7256,37.0168 3.7386,36.9798 3.7666,36.9498 C3.7936,36.9188 3.8286,36.9038 3.8726,36.9038 L4.3086,36.9038 C4.3516,36.9038 4.3876,36.9188 4.4146,36.9498 C4.4416,36.9798 4.4556,37.0168 4.4556,37.0598 L4.4556,42.7698 Z" id="Fill-71" fill="#0C6635"></path>
                <path d="M9.2779,39.426 C9.2779,39.08 9.2439,38.788 9.1749,38.547 C9.1069,38.306 9.0099,38.109 8.8839,37.955 C8.7579,37.802 8.6049,37.692 8.4239,37.622 C8.2429,37.555 8.0409,37.52 7.8159,37.52 C7.5909,37.52 7.3889,37.555 7.2079,37.622 C7.0269,37.692 6.8729,37.802 6.7439,37.955 C6.6149,38.109 6.5159,38.306 6.4479,38.547 C6.3799,38.788 6.3449,39.08 6.3449,39.426 L6.3449,40.486 C6.3449,40.831 6.3799,41.124 6.4479,41.364 C6.5159,41.606 6.6139,41.803 6.7399,41.956 C6.8659,42.11 7.0199,42.221 7.2039,42.289 C7.3869,42.358 7.5909,42.392 7.8159,42.392 C8.0409,42.392 8.2429,42.358 8.4239,42.289 C8.6049,42.221 8.7579,42.11 8.8839,41.956 C9.0099,41.803 9.1069,41.606 9.1749,41.364 C9.2439,41.124 9.2779,40.831 9.2779,40.486 L9.2779,39.426 Z M10.0339,40.486 C10.0339,40.941 9.9789,41.33 9.8699,41.656 C9.7589,41.982 9.6069,42.249 9.4099,42.457 C9.2129,42.665 8.9779,42.819 8.7079,42.917 C8.4359,43.016 8.1389,43.065 7.8159,43.065 C7.4929,43.065 7.1959,43.016 6.9239,42.917 C6.6539,42.819 6.4199,42.665 6.2219,42.457 C6.0249,42.249 5.8709,41.982 5.7579,41.656 C5.6459,41.33 5.5899,40.941 5.5899,40.486 L5.5899,39.426 C5.5899,38.972 5.6459,38.581 5.7579,38.255 C5.8709,37.93 6.0249,37.662 6.2219,37.454 C6.4199,37.246 6.6539,37.093 6.9239,36.994 C7.1959,36.896 7.4929,36.847 7.8159,36.847 C8.1389,36.847 8.4359,36.896 8.7079,36.994 C8.9779,37.093 9.2129,37.246 9.4099,37.454 C9.6069,37.662 9.7589,37.93 9.8699,38.255 C9.9789,38.581 10.0339,38.972 10.0339,39.426 L10.0339,40.486 Z" id="Fill-73" fill="#0C6635"></path>
                <path d="M14.3716,38.6126 C14.3716,38.2016 14.2396,37.9176 13.9766,37.7586 C13.7146,37.5996 13.3256,37.5196 12.8106,37.5196 L12.5896,37.5196 C12.5066,37.5196 12.4236,37.5216 12.3386,37.5246 C12.2536,37.5266 12.1726,37.5296 12.0966,37.5326 C12.0186,37.5356 11.9566,37.5396 11.9066,37.5446 L11.9066,39.7966 C12.0876,39.8006 12.2606,39.8046 12.4246,39.8076 C12.5896,39.8106 12.7176,39.8116 12.8106,39.8116 C13.0616,39.8116 13.2856,39.7946 13.4796,39.7586 C13.6746,39.7226 13.8376,39.6616 13.9696,39.5736 C14.1006,39.4866 14.1996,39.3696 14.2686,39.2246 C14.3376,39.0806 14.3716,38.8946 14.3716,38.6706 L14.3716,38.6126 Z M15.3416,42.9006 C15.3416,42.9716 15.3056,43.0086 15.2336,43.0086 L14.7086,43.0086 C14.6586,43.0086 14.6186,43.0036 14.5896,42.9956 C14.5586,42.9866 14.5276,42.9566 14.4946,42.9006 L13.0236,40.4526 L12.8106,40.4526 C12.6736,40.4526 12.5436,40.4516 12.4206,40.4486 C12.2976,40.4456 12.1256,40.4386 11.9066,40.4276 L11.9066,42.8426 C11.9066,42.8866 11.8926,42.9256 11.8656,42.9586 C11.8386,42.9916 11.8036,43.0086 11.7596,43.0086 L11.3156,43.0086 C11.2716,43.0086 11.2356,42.9916 11.2086,42.9586 C11.1816,42.9256 11.1676,42.8866 11.1676,42.8426 L11.1676,37.0926 C11.1676,37.0326 11.1816,36.9906 11.2086,36.9666 C11.2356,36.9406 11.2876,36.9236 11.3646,36.9126 C11.4526,36.9016 11.5556,36.8916 11.6736,36.8836 C11.7906,36.8756 11.9136,36.8686 12.0426,36.8626 C12.1716,36.8576 12.3016,36.8536 12.4336,36.8506 C12.5636,36.8476 12.6896,36.8466 12.8106,36.8466 C13.1346,36.8466 13.4356,36.8776 13.7186,36.9366 C14.0006,36.9976 14.2436,37.0956 14.4496,37.2326 C14.6546,37.3696 14.8156,37.5506 14.9336,37.7746 C15.0526,37.9996 15.1106,38.2786 15.1106,38.6126 L15.1106,38.6706 C15.1106,38.9006 15.0786,39.1066 15.0166,39.2906 C14.9536,39.4736 14.8636,39.6336 14.7496,39.7706 C14.6346,39.9076 14.4976,40.0226 14.3386,40.1156 C14.1806,40.2096 14.0076,40.2806 13.8206,40.3296 L15.3156,42.8266 C15.3326,42.8546 15.3416,42.8796 15.3416,42.9006 L15.3416,42.9006 Z" id="Fill-75" fill="#0C6635"></path>
                <path d="M19.8667,37.4134 C19.8667,37.5014 19.8147,37.5444 19.7117,37.5444 L18.1087,37.5444 L18.1087,42.8434 C18.1087,42.8874 18.0957,42.9264 18.0677,42.9584 C18.0407,42.9914 18.0057,43.0084 17.9617,43.0084 L17.5097,43.0084 C17.4657,43.0084 17.4297,42.9914 17.4027,42.9584 C17.3747,42.9264 17.3617,42.8874 17.3617,42.8434 L17.3617,37.5444 L15.7597,37.5444 C15.7157,37.5444 15.6777,37.5334 15.6447,37.5124 C15.6117,37.4904 15.5957,37.4574 15.5957,37.4134 L15.5957,37.0524 C15.5957,37.0084 15.6117,36.9734 15.6447,36.9444 C15.6777,36.9184 15.7157,36.9034 15.7597,36.9034 L19.7117,36.9034 C19.8147,36.9034 19.8667,36.9534 19.8667,37.0524 L19.8667,37.4134 Z" id="Fill-77" fill="#0C6635"></path>
                <path d="M25.1001,42.843 C25.1001,42.887 25.0831,42.926 25.0501,42.958 C25.0181,42.991 24.9791,43.008 24.9361,43.008 L24.5171,43.008 C24.4731,43.008 24.4341,42.991 24.4021,42.958 C24.3691,42.926 24.3521,42.887 24.3521,42.843 L24.3521,40.115 L21.5431,40.115 L21.5431,42.843 C21.5431,42.887 21.5261,42.926 21.4941,42.958 C21.4601,42.991 21.4221,43.008 21.3781,43.008 L20.9591,43.008 C20.9151,43.008 20.8771,42.991 20.8441,42.958 C20.8121,42.926 20.7951,42.887 20.7951,42.843 L20.7951,37.069 C20.7951,37.025 20.8121,36.987 20.8441,36.953 C20.8771,36.92 20.9151,36.904 20.9591,36.904 L21.3781,36.904 C21.4221,36.904 21.4601,36.92 21.4941,36.953 C21.5261,36.987 21.5431,37.025 21.5431,37.069 L21.5431,39.45 L24.3521,39.45 L24.3521,37.069 C24.3521,37.025 24.3691,36.987 24.4021,36.953 C24.4341,36.92 24.4731,36.904 24.5171,36.904 L24.9361,36.904 C24.9791,36.904 25.0181,36.92 25.0501,36.953 C25.0831,36.987 25.1001,37.025 25.1001,37.069 L25.1001,42.843 Z" id="Fill-79" fill="#0C6635"></path>
                <path d="M29.815,42.9094 C29.815,42.9364 29.808,42.9614 29.794,42.9824 C29.781,43.0054 29.76,43.0184 29.733,43.0234 C29.656,43.0344 29.552,43.0424 29.42,43.0454 C29.29,43.0474 29.148,43.0514 28.998,43.0564 C28.847,43.0624 28.695,43.0644 28.542,43.0644 L28.131,43.0644 C27.55,43.0644 27.114,42.9474 26.821,42.7124 C26.528,42.4764 26.381,42.0854 26.381,41.5374 L26.381,38.3744 C26.381,37.8264 26.528,37.4344 26.821,37.1994 C27.114,36.9644 27.55,36.8474 28.131,36.8474 L28.534,36.8474 L28.985,36.8624 C29.133,36.8624 29.273,36.8684 29.404,36.8794 L29.733,36.8954 C29.76,36.9014 29.781,36.9154 29.794,36.9364 C29.808,36.9584 29.815,36.9834 29.815,37.0114 L29.815,37.4224 C29.815,37.4874 29.785,37.5194 29.725,37.5194 L28.139,37.5194 C27.92,37.5194 27.745,37.5354 27.614,37.5654 C27.482,37.5964 27.38,37.6444 27.309,37.7134 C27.238,37.7814 27.19,37.8714 27.166,37.9794 C27.141,38.0904 27.129,38.2214 27.129,38.3744 L27.129,39.5164 L29.651,39.5164 C29.695,39.5164 29.733,39.5324 29.766,39.5654 C29.798,39.5984 29.815,39.6374 29.815,39.6804 L29.815,39.9924 C29.815,40.0374 29.798,40.0744 29.766,40.1074 C29.733,40.1404 29.695,40.1574 29.651,40.1574 L27.129,40.1574 L27.129,41.5374 C27.129,41.6954 27.141,41.8294 27.166,41.9354 C27.19,42.0424 27.238,42.1304 27.309,42.1984 C27.38,42.2664 27.482,42.3164 27.614,42.3464 C27.745,42.3764 27.92,42.3914 28.139,42.3914 L29.725,42.3914 C29.785,42.3914 29.815,42.4244 29.815,42.4904 L29.815,42.9094 Z" id="Fill-81" fill="#0C6635"></path>
                <path d="M34.1109,38.6126 C34.1109,38.2016 33.9799,37.9176 33.7169,37.7586 C33.4549,37.5996 33.0649,37.5196 32.5499,37.5196 L32.3289,37.5196 C32.2469,37.5196 32.1639,37.5216 32.0779,37.5246 C31.9929,37.5266 31.9129,37.5296 31.8359,37.5326 C31.7589,37.5356 31.6959,37.5396 31.6469,37.5446 L31.6469,39.7966 C31.8279,39.8006 32.0009,39.8046 32.1649,39.8076 C32.3289,39.8106 32.4579,39.8116 32.5499,39.8116 C32.8019,39.8116 33.0259,39.7946 33.2199,39.7586 C33.4149,39.7226 33.5779,39.6616 33.7089,39.5736 C33.8399,39.4866 33.9399,39.3696 34.0079,39.2246 C34.0779,39.0806 34.1109,38.8946 34.1109,38.6706 L34.1109,38.6126 Z M35.0809,42.9006 C35.0809,42.9716 35.0459,43.0086 34.9739,43.0086 L34.4489,43.0086 C34.3989,43.0086 34.3589,43.0036 34.3299,42.9956 C34.2989,42.9866 34.2669,42.9566 34.2349,42.9006 L32.7639,40.4526 L32.5499,40.4526 C32.4139,40.4526 32.2839,40.4516 32.1599,40.4486 C32.0379,40.4456 31.8659,40.4386 31.6469,40.4276 L31.6469,42.8426 C31.6469,42.8866 31.6329,42.9256 31.6059,42.9586 C31.5789,42.9916 31.5429,43.0086 31.4999,43.0086 L31.0549,43.0086 C31.0109,43.0086 30.9759,42.9916 30.9489,42.9586 C30.9219,42.9256 30.9079,42.8866 30.9079,42.8426 L30.9079,37.0926 C30.9079,37.0326 30.9219,36.9906 30.9489,36.9666 C30.9759,36.9406 31.0279,36.9236 31.1049,36.9126 C31.1919,36.9016 31.2959,36.8916 31.4129,36.8836 C31.5309,36.8756 31.6539,36.8686 31.7829,36.8626 C31.9109,36.8576 32.0409,36.8536 32.1729,36.8506 C32.3039,36.8476 32.4299,36.8466 32.5499,36.8466 C32.8739,36.8466 33.1759,36.8776 33.4589,36.9366 C33.7399,36.9976 33.9839,37.0956 34.1889,37.2326 C34.3949,37.3696 34.5559,37.5506 34.6739,37.7746 C34.7919,37.9996 34.8509,38.2786 34.8509,38.6126 L34.8509,38.6706 C34.8509,38.9006 34.8189,39.1066 34.7569,39.2906 C34.6929,39.4736 34.6039,39.6336 34.4889,39.7706 C34.3749,39.9076 34.2369,40.0226 34.0789,40.1156 C33.9199,40.2096 33.7479,40.2806 33.5609,40.3296 L35.0559,42.8266 C35.0729,42.8546 35.0809,42.8796 35.0809,42.9006 L35.0809,42.9006 Z" id="Fill-83" fill="#0C6635"></path>
                <path d="M40.3462,42.7698 C40.3462,42.8348 40.3242,42.8908 40.2772,42.9378 C40.2302,42.9848 40.1742,43.0078 40.1092,43.0078 L39.5992,43.0078 C39.4672,43.0078 39.3802,42.9638 39.3362,42.8758 L36.7982,38.0538 C36.7862,38.0388 36.7792,38.0298 36.7732,38.0298 C36.7682,38.0298 36.7652,38.0388 36.7652,38.0538 L36.7652,42.8518 C36.7652,42.8958 36.7512,42.9328 36.7242,42.9618 C36.6972,42.9928 36.6602,43.0078 36.6172,43.0078 L36.1902,43.0078 C36.1462,43.0078 36.1112,43.0018 36.0832,42.9918 C36.0562,42.9808 36.0422,42.9528 36.0422,42.9098 L36.0422,37.1338 C36.0422,37.0688 36.0662,37.0138 36.1122,36.9698 C36.1592,36.9258 36.2142,36.9038 36.2812,36.9038 L36.7322,36.9038 C36.8472,36.9038 36.9232,36.9158 36.9622,36.9408 C37.0002,36.9658 37.0362,37.0078 37.0692,37.0688 L39.5912,41.8658 L39.6082,41.8908 C39.6132,41.8908 39.6162,41.8818 39.6162,41.8658 L39.6162,37.0598 C39.6162,37.0168 39.6292,36.9798 39.6572,36.9498 C39.6842,36.9188 39.7192,36.9038 39.7632,36.9038 L40.1992,36.9038 C40.2422,36.9038 40.2782,36.9188 40.3052,36.9498 C40.3322,36.9798 40.3462,37.0168 40.3462,37.0598 L40.3462,42.7698 Z" id="Fill-85" fill="#0C6635"></path>
                <path d="M46.9185,41.1839 C46.9185,41.0469 46.8985,40.9159 46.8605,40.7899 C46.8225,40.6639 46.7555,40.5529 46.6595,40.4559 C46.5635,40.3619 46.4365,40.2849 46.2765,40.2269 C46.1185,40.1689 45.9185,40.1409 45.6785,40.1409 L44.4125,40.1409 L44.4125,42.3999 C44.5495,42.4059 44.6905,42.4129 44.8355,42.4199 C44.9815,42.4289 45.1245,42.4329 45.2675,42.4329 C45.5195,42.4329 45.7475,42.4159 45.9525,42.3829 C46.1585,42.3509 46.3325,42.2929 46.4745,42.2109 C46.6165,42.1289 46.7265,42.0169 46.8035,41.8739 C46.8795,41.7319 46.9185,41.5479 46.9185,41.3239 L46.9185,41.1839 Z M46.8855,38.4319 C46.8855,38.2349 46.8455,38.0749 46.7665,37.9519 C46.6875,37.8289 46.5745,37.7309 46.4295,37.6599 C46.2845,37.5889 46.1095,37.5409 45.9075,37.5159 C45.7055,37.4919 45.4785,37.4789 45.2265,37.4789 C45.0835,37.4789 44.9405,37.4819 44.7985,37.4879 C44.6555,37.4929 44.5275,37.4979 44.4125,37.5039 L44.4125,39.5409 L45.6785,39.5409 C45.9135,39.5409 46.1085,39.5149 46.2655,39.4629 C46.4215,39.4109 46.5455,39.3399 46.6395,39.2489 C46.7315,39.1589 46.7965,39.0549 46.8315,38.9369 C46.8675,38.8199 46.8855,38.6949 46.8855,38.5639 L46.8855,38.4319 Z M47.6655,41.3239 C47.6655,41.6689 47.6015,41.9539 47.4735,42.1779 C47.3445,42.4029 47.1685,42.5799 46.9465,42.7119 C46.7255,42.8429 46.4695,42.9349 46.1795,42.9869 C45.8885,43.0389 45.5845,43.0649 45.2675,43.0649 C44.9935,43.0649 44.7415,43.0599 44.5115,43.0489 C44.2815,43.0379 44.0865,43.0189 43.9285,42.9919 C43.8345,42.9809 43.7665,42.9529 43.7225,42.9099 C43.6795,42.8659 43.6565,42.7909 43.6565,42.6869 L43.6565,37.2159 C43.6565,37.0299 43.7445,36.9289 43.9195,36.9129 C44.0565,36.8959 44.2415,36.8809 44.4745,36.8679 C44.7075,36.8539 44.9575,36.8469 45.2265,36.8469 C45.5545,36.8469 45.8635,36.8719 46.1545,36.9199 C46.4435,36.9699 46.6995,37.0549 46.9185,37.1749 C47.1375,37.2959 47.3115,37.4569 47.4395,37.6599 C47.5675,37.8629 47.6335,38.1199 47.6335,38.4319 L47.6335,38.5639 C47.6335,38.8709 47.5565,39.1339 47.4025,39.3559 C47.2495,39.5779 47.0335,39.7439 46.7545,39.8529 C47.0385,39.9529 47.2625,40.1199 47.4235,40.3539 C47.5855,40.5899 47.6655,40.8669 47.6655,41.1839 L47.6655,41.3239 Z" id="Fill-87" fill="#0C6635"></path>
                <path d="M52.2583,39.426 C52.2583,39.08 52.2233,38.788 52.1553,38.547 C52.0863,38.306 51.9893,38.109 51.8633,37.955 C51.7373,37.802 51.5843,37.692 51.4043,37.622 C51.2233,37.555 51.0203,37.52 50.7953,37.52 C50.5713,37.52 50.3683,37.555 50.1883,37.622 C50.0073,37.692 49.8523,37.802 49.7233,37.955 C49.5953,38.109 49.4963,38.306 49.4283,38.547 C49.3603,38.788 49.3253,39.08 49.3253,39.426 L49.3253,40.486 C49.3253,40.831 49.3603,41.124 49.4283,41.364 C49.4963,41.606 49.5933,41.803 49.7193,41.956 C49.8453,42.11 50.0003,42.221 50.1833,42.289 C50.3673,42.358 50.5713,42.392 50.7953,42.392 C51.0203,42.392 51.2233,42.358 51.4043,42.289 C51.5843,42.221 51.7373,42.11 51.8633,41.956 C51.9893,41.803 52.0863,41.606 52.1553,41.364 C52.2233,41.124 52.2583,40.831 52.2583,40.486 L52.2583,39.426 Z M53.0133,40.486 C53.0133,40.941 52.9583,41.33 52.8493,41.656 C52.7393,41.982 52.5863,42.249 52.3893,42.457 C52.1923,42.665 51.9583,42.819 51.6873,42.917 C51.4153,43.016 51.1183,43.065 50.7953,43.065 C50.4723,43.065 50.1753,43.016 49.9043,42.917 C49.6333,42.819 49.3993,42.665 49.2013,42.457 C49.0043,42.249 48.8503,41.982 48.7373,41.656 C48.6253,41.33 48.5703,40.941 48.5703,40.486 L48.5703,39.426 C48.5703,38.972 48.6253,38.581 48.7373,38.255 C48.8503,37.93 49.0043,37.662 49.2013,37.454 C49.3993,37.246 49.6333,37.093 49.9043,36.994 C50.1753,36.896 50.4723,36.847 50.7953,36.847 C51.1183,36.847 51.4153,36.896 51.6873,36.994 C51.9583,37.093 52.1923,37.246 52.3893,37.454 C52.5863,37.662 52.7393,37.93 52.8493,38.255 C52.9583,38.581 53.0133,38.972 53.0133,39.426 L53.0133,40.486 Z" id="Fill-89" fill="#0C6635"></path>
                <path d="M57.3511,38.6126 C57.3511,38.2016 57.2201,37.9176 56.9561,37.7586 C56.6941,37.5996 56.3051,37.5196 55.7901,37.5196 L55.5691,37.5196 C55.4871,37.5196 55.4031,37.5216 55.3181,37.5246 C55.2331,37.5266 55.1531,37.5296 55.0761,37.5326 C54.9991,37.5356 54.9361,37.5396 54.8871,37.5446 L54.8871,39.7966 C55.0681,39.8006 55.2401,39.8046 55.4051,39.8076 C55.5691,39.8106 55.6981,39.8116 55.7901,39.8116 C56.0421,39.8116 56.2661,39.7946 56.4591,39.7586 C56.6551,39.7226 56.8181,39.6616 56.9491,39.5736 C57.0801,39.4866 57.1801,39.3696 57.2481,39.2246 C57.3171,39.0806 57.3511,38.8946 57.3511,38.6706 L57.3511,38.6126 Z M58.3211,42.9006 C58.3211,42.9716 58.2851,43.0086 58.2131,43.0086 L57.6881,43.0086 C57.6381,43.0086 57.5991,43.0036 57.5691,42.9956 C57.5381,42.9866 57.5071,42.9566 57.4751,42.9006 L56.0041,40.4526 L55.7901,40.4526 C55.6541,40.4526 55.5241,40.4516 55.4001,40.4486 C55.2771,40.4456 55.1061,40.4386 54.8871,40.4276 L54.8871,42.8426 C54.8871,42.8866 54.8731,42.9256 54.8451,42.9586 C54.8191,42.9916 54.7831,43.0086 54.7391,43.0086 L54.2951,43.0086 C54.2511,43.0086 54.2161,42.9916 54.1891,42.9586 C54.1621,42.9256 54.1481,42.8866 54.1481,42.8426 L54.1481,37.0926 C54.1481,37.0326 54.1621,36.9906 54.1891,36.9666 C54.2161,36.9406 54.2681,36.9236 54.3451,36.9126 C54.4321,36.9016 54.5351,36.8916 54.6531,36.8836 C54.7711,36.8756 54.8941,36.8686 55.0231,36.8626 C55.1511,36.8576 55.2811,36.8536 55.4131,36.8506 C55.5441,36.8476 55.6691,36.8466 55.7901,36.8466 C56.1141,36.8466 56.4161,36.8776 56.6991,36.9366 C56.9801,36.9976 57.2241,37.0956 57.4291,37.2326 C57.6351,37.3696 57.7961,37.5506 57.9131,37.7746 C58.0321,37.9996 58.0911,38.2786 58.0911,38.6126 L58.0911,38.6706 C58.0911,38.9006 58.0591,39.1066 57.9971,39.2906 C57.9331,39.4736 57.8441,39.6336 57.7291,39.7706 C57.6141,39.9076 57.4771,40.0226 57.3191,40.1156 C57.1601,40.2096 56.9871,40.2806 56.8011,40.3296 L58.2961,42.8266 C58.3131,42.8546 58.3211,42.8796 58.3211,42.9006 L58.3211,42.9006 Z" id="Fill-91" fill="#0C6635"></path>
                <path d="M62.691,39.4016 C62.691,39.0286 62.646,38.7196 62.555,38.4726 C62.465,38.2266 62.342,38.0306 62.186,37.8856 C62.03,37.7406 61.846,37.6376 61.635,37.5776 C61.424,37.5176 61.196,37.4876 60.95,37.4876 C60.757,37.4876 60.592,37.4886 60.453,37.4916 C60.313,37.4946 60.174,37.5016 60.038,37.5116 L60.038,42.4076 C60.169,42.4196 60.305,42.4236 60.449,42.4236 L60.95,42.4236 C61.196,42.4236 61.424,42.3946 61.635,42.3346 C61.846,42.2736 62.03,42.1706 62.186,42.0216 C62.342,41.8746 62.465,41.6776 62.555,41.4346 C62.646,41.1906 62.691,40.8826 62.691,40.5096 L62.691,39.4016 Z M63.439,40.5096 C63.439,40.9486 63.379,41.3296 63.262,41.6526 C63.144,41.9756 62.977,42.2406 62.761,42.4486 C62.545,42.6576 62.283,42.8116 61.976,42.9136 C61.67,43.0146 61.328,43.0646 60.95,43.0646 C60.791,43.0646 60.635,43.0626 60.485,43.0566 C60.335,43.0506 60.192,43.0456 60.058,43.0366 C59.923,43.0286 59.805,43.0196 59.701,43.0116 C59.597,43.0036 59.514,42.9936 59.455,42.9826 C59.339,42.9666 59.282,42.8976 59.282,42.7776 L59.282,37.1336 C59.282,37.0136 59.339,36.9446 59.455,36.9286 C59.514,36.9186 59.597,36.9086 59.701,36.8996 C59.805,36.8916 59.923,36.8836 60.058,36.8756 C60.192,36.8676 60.335,36.8606 60.485,36.8546 C60.635,36.8496 60.791,36.8466 60.95,36.8466 C61.328,36.8466 61.67,36.8956 61.976,36.9946 C62.283,37.0926 62.545,37.2486 62.761,37.4586 C62.977,37.6696 63.144,37.9346 63.262,38.2556 C63.379,38.5756 63.439,38.9586 63.439,39.4016 L63.439,40.5096 Z" id="Fill-93" fill="#0C6635"></path>
                <path d="M67.981,42.9094 C67.981,42.9364 67.974,42.9614 67.96,42.9824 C67.947,43.0054 67.926,43.0184 67.899,43.0234 C67.822,43.0344 67.718,43.0424 67.586,43.0454 C67.456,43.0474 67.314,43.0514 67.164,43.0564 C67.013,43.0624 66.861,43.0644 66.708,43.0644 L66.296,43.0644 C65.716,43.0644 65.28,42.9474 64.987,42.7124 C64.694,42.4764 64.547,42.0854 64.547,41.5374 L64.547,38.3744 C64.547,37.8264 64.694,37.4344 64.987,37.1994 C65.28,36.9644 65.716,36.8474 66.296,36.8474 L66.7,36.8474 L67.151,36.8624 C67.299,36.8624 67.439,36.8684 67.57,36.8794 L67.899,36.8954 C67.926,36.9014 67.947,36.9154 67.96,36.9364 C67.974,36.9584 67.981,36.9834 67.981,37.0114 L67.981,37.4224 C67.981,37.4874 67.951,37.5194 67.891,37.5194 L66.305,37.5194 C66.086,37.5194 65.911,37.5354 65.78,37.5654 C65.648,37.5964 65.546,37.6444 65.475,37.7134 C65.404,37.7814 65.356,37.8714 65.332,37.9794 C65.307,38.0904 65.294,38.2214 65.294,38.3744 L65.294,39.5164 L67.817,39.5164 C67.861,39.5164 67.899,39.5324 67.932,39.5654 C67.964,39.5984 67.981,39.6374 67.981,39.6804 L67.981,39.9924 C67.981,40.0374 67.964,40.0744 67.932,40.1074 C67.899,40.1404 67.861,40.1574 67.817,40.1574 L65.294,40.1574 L65.294,41.5374 C65.294,41.6954 65.307,41.8294 65.332,41.9354 C65.356,42.0424 65.404,42.1304 65.475,42.1984 C65.546,42.2664 65.648,42.3164 65.78,42.3464 C65.911,42.3764 66.086,42.3914 66.305,42.3914 L67.891,42.3914 C67.951,42.3914 67.981,42.4244 67.981,42.4904 L67.981,42.9094 Z" id="Fill-95" fill="#0C6635"></path>
                <path d="M72.2779,38.6126 C72.2779,38.2016 72.1459,37.9176 71.8829,37.7586 C71.6209,37.5996 71.2319,37.5196 70.7169,37.5196 L70.4949,37.5196 C70.4129,37.5196 70.3299,37.5216 70.2449,37.5246 C70.1599,37.5266 70.0789,37.5296 70.0019,37.5326 C69.9249,37.5356 69.8629,37.5396 69.8129,37.5446 L69.8129,39.7966 C69.9939,39.8006 70.1669,39.8046 70.3309,39.8076 C70.4949,39.8106 70.6239,39.8116 70.7169,39.8116 C70.9679,39.8116 71.1919,39.7946 71.3859,39.7586 C71.5809,39.7226 71.7439,39.6616 71.8749,39.5736 C72.0069,39.4866 72.1059,39.3696 72.1749,39.2246 C72.2439,39.0806 72.2779,38.8946 72.2779,38.6706 L72.2779,38.6126 Z M73.2479,42.9006 C73.2479,42.9716 73.2119,43.0086 73.1399,43.0086 L72.6149,43.0086 C72.5649,43.0086 72.5249,43.0036 72.4959,42.9956 C72.4649,42.9866 72.4339,42.9566 72.4009,42.9006 L70.9299,40.4526 L70.7169,40.4526 C70.5799,40.4526 70.4499,40.4516 70.3269,40.4486 C70.2039,40.4456 70.0319,40.4386 69.8129,40.4276 L69.8129,42.8426 C69.8129,42.8866 69.7989,42.9256 69.7719,42.9586 C69.7449,42.9916 69.7089,43.0086 69.6659,43.0086 L69.2219,43.0086 C69.1779,43.0086 69.1419,42.9916 69.1149,42.9586 C69.0879,42.9256 69.0739,42.8866 69.0739,42.8426 L69.0739,37.0926 C69.0739,37.0326 69.0879,36.9906 69.1149,36.9666 C69.1419,36.9406 69.1939,36.9236 69.2709,36.9126 C69.3589,36.9016 69.4619,36.8916 69.5789,36.8836 C69.6969,36.8756 69.8199,36.8686 69.9489,36.8626 C70.0779,36.8576 70.2079,36.8536 70.3399,36.8506 C70.4699,36.8476 70.5959,36.8466 70.7169,36.8466 C71.0409,36.8466 71.3419,36.8776 71.6249,36.9366 C71.9069,36.9976 72.1499,37.0956 72.3559,37.2326 C72.5609,37.3696 72.7219,37.5506 72.8399,37.7746 C72.9579,37.9996 73.0169,38.2786 73.0169,38.6126 L73.0169,38.6706 C73.0169,38.9006 72.9849,39.1066 72.9229,39.2906 C72.8599,39.4736 72.7699,39.6336 72.6559,39.7706 C72.5409,39.9076 72.4039,40.0226 72.2449,40.1156 C72.0869,40.2096 71.9139,40.2806 71.7269,40.3296 L73.2219,42.8266 C73.2389,42.8546 73.2479,42.8796 73.2479,42.9006 L73.2479,42.9006 Z" id="Fill-97" fill="#0C6635"></path>
                <path d="M80.4185,40.7903 C80.4185,41.5723 80.2325,42.1473 79.8635,42.5153 C79.4935,42.8823 78.9785,43.0643 78.3145,43.0643 C77.6475,43.0643 77.1295,42.8823 76.7625,42.5153 C76.3965,42.1473 76.2125,41.5723 76.2125,40.7903 L76.2125,37.0603 C76.2125,37.0173 76.2275,36.9793 76.2575,36.9493 C76.2875,36.9193 76.3245,36.9033 76.3685,36.9033 L76.8125,36.9033 C76.8555,36.9033 76.8935,36.9193 76.9235,36.9493 C76.9525,36.9793 76.9675,37.0173 76.9675,37.0603 L76.9675,40.7903 C76.9675,41.0533 76.9895,41.2863 77.0335,41.4913 C77.0775,41.6973 77.1525,41.8683 77.2595,42.0053 C77.3665,42.1433 77.5045,42.2463 77.6745,42.3173 C77.8445,42.3893 78.0585,42.4243 78.3145,42.4243 C78.5665,42.4243 78.7795,42.3893 78.9515,42.3173 C79.1245,42.2463 79.2645,42.1433 79.3705,42.0053 C79.4785,41.8683 79.5535,41.6993 79.5975,41.4963 C79.6405,41.2933 79.6625,41.0583 79.6625,40.7903 L79.6625,37.0603 C79.6625,37.0173 79.6775,36.9793 79.7075,36.9493 C79.7375,36.9193 79.7745,36.9033 79.8185,36.9033 L80.2625,36.9033 C80.3065,36.9033 80.3435,36.9193 80.3725,36.9493 C80.4025,36.9793 80.4185,37.0173 80.4185,37.0603 L80.4185,40.7903 Z" id="Fill-99" fill="#0C6635"></path>
                <path d="M85.98,42.7698 C85.98,42.8348 85.957,42.8908 85.91,42.9378 C85.863,42.9848 85.807,43.0078 85.742,43.0078 L85.232,43.0078 C85.101,43.0078 85.013,42.9638 84.969,42.8758 L82.431,38.0538 C82.42,38.0388 82.412,38.0298 82.406,38.0298 C82.401,38.0298 82.398,38.0388 82.398,38.0538 L82.398,42.8518 C82.398,42.8958 82.384,42.9328 82.357,42.9618 C82.33,42.9928 82.294,43.0078 82.251,43.0078 L81.823,43.0078 C81.779,43.0078 81.744,43.0018 81.716,42.9918 C81.689,42.9808 81.675,42.9528 81.675,42.9098 L81.675,37.1338 C81.675,37.0688 81.699,37.0138 81.745,36.9698 C81.792,36.9258 81.848,36.9038 81.914,36.9038 L82.365,36.9038 C82.48,36.9038 82.557,36.9158 82.595,36.9408 C82.633,36.9658 82.669,37.0078 82.702,37.0688 L85.224,41.8658 L85.241,41.8908 C85.246,41.8908 85.249,41.8818 85.249,41.8658 L85.249,37.0598 C85.249,37.0168 85.262,36.9798 85.29,36.9498 C85.317,36.9188 85.353,36.9038 85.397,36.9038 L85.833,36.9038 C85.876,36.9038 85.911,36.9188 85.939,36.9498 C85.966,36.9798 85.98,37.0168 85.98,37.0598 L85.98,42.7698 Z" id="Fill-101" fill="#0C6635"></path>
                <path d="M88.0914,42.843 C88.0914,42.887 88.0764,42.926 88.0504,42.958 C88.0224,42.991 87.9874,43.008 87.9434,43.008 L87.4904,43.008 C87.4464,43.008 87.4114,42.991 87.3844,42.958 C87.3574,42.926 87.3434,42.887 87.3434,42.843 L87.3434,37.06 C87.3434,37.017 87.3574,36.98 87.3844,36.949 C87.4114,36.919 87.4464,36.904 87.4904,36.904 L87.9434,36.904 C87.9874,36.904 88.0224,36.919 88.0504,36.949 C88.0764,36.98 88.0914,37.017 88.0914,37.06 L88.0914,42.843 Z" id="Fill-103" fill="#0C6635"></path>
                <path d="M93.8169,37.0442 C93.8169,37.0652 93.8139,37.0822 93.8079,37.0932 L92.2959,42.4402 C92.2579,42.5722 92.2079,42.6782 92.1449,42.7572 C92.0819,42.8362 92.0129,42.8992 91.9389,42.9452 C91.8659,42.9922 91.7859,43.0232 91.7009,43.0402 C91.6159,43.0572 91.5359,43.0652 91.4589,43.0652 C91.3819,43.0652 91.3029,43.0572 91.2199,43.0402 C91.1379,43.0232 91.0589,42.9922 90.9819,42.9452 C90.9059,42.8992 90.8369,42.8362 90.7729,42.7572 C90.7109,42.6782 90.6589,42.5722 90.6219,42.4402 L89.1009,37.0932 C89.0959,37.0822 89.0929,37.0652 89.0929,37.0442 C89.0929,36.9992 89.1069,36.9662 89.1339,36.9402 C89.1619,36.9162 89.1969,36.9032 89.2409,36.9032 L89.7169,36.9032 C89.7499,36.9032 89.7799,36.9162 89.8079,36.9402 C89.8349,36.9662 89.8539,36.9942 89.8649,37.0272 L91.2949,42.2602 C91.3279,42.3752 91.3819,42.4332 91.4589,42.4332 C91.5299,42.4332 91.5819,42.3752 91.6149,42.2602 L93.0519,37.0272 C93.0629,36.9942 93.0819,36.9662 93.1059,36.9402 C93.1299,36.9162 93.1589,36.9032 93.1919,36.9032 L93.6769,36.9032 C93.7699,36.9032 93.8169,36.9502 93.8169,37.0442" id="Fill-105" fill="#0C6635"></path>
                <path d="M97.9566,42.9094 C97.9566,42.9364 97.9496,42.9614 97.9356,42.9824 C97.9226,43.0054 97.9016,43.0184 97.8746,43.0234 C97.7986,43.0344 97.6936,43.0424 97.5616,43.0454 C97.4316,43.0474 97.2906,43.0514 97.1396,43.0564 C96.9886,43.0624 96.8366,43.0644 96.6836,43.0644 L96.2726,43.0644 C95.6916,43.0644 95.2556,42.9474 94.9626,42.7124 C94.6696,42.4764 94.5226,42.0854 94.5226,41.5374 L94.5226,38.3744 C94.5226,37.8264 94.6696,37.4344 94.9626,37.1994 C95.2556,36.9644 95.6916,36.8474 96.2726,36.8474 L96.6756,36.8474 L97.1276,36.8624 C97.2746,36.8624 97.4146,36.8684 97.5466,36.8794 L97.8746,36.8954 C97.9016,36.9014 97.9226,36.9154 97.9356,36.9364 C97.9496,36.9584 97.9566,36.9834 97.9566,37.0114 L97.9566,37.4224 C97.9566,37.4874 97.9266,37.5194 97.8666,37.5194 L96.2806,37.5194 C96.0616,37.5194 95.8866,37.5354 95.7556,37.5654 C95.6236,37.5964 95.5216,37.6444 95.4506,37.7134 C95.3806,37.7814 95.3326,37.8714 95.3076,37.9794 C95.2826,38.0904 95.2706,38.2214 95.2706,38.3744 L95.2706,39.5164 L97.7926,39.5164 C97.8366,39.5164 97.8746,39.5324 97.9076,39.5654 C97.9396,39.5984 97.9566,39.6374 97.9566,39.6804 L97.9566,39.9924 C97.9566,40.0374 97.9396,40.0744 97.9076,40.1074 C97.8746,40.1404 97.8366,40.1574 97.7926,40.1574 L95.2706,40.1574 L95.2706,41.5374 C95.2706,41.6954 95.2826,41.8294 95.3076,41.9354 C95.3326,42.0424 95.3806,42.1304 95.4506,42.1984 C95.5216,42.2664 95.6236,42.3164 95.7556,42.3464 C95.8866,42.3764 96.0616,42.3914 96.2806,42.3914 L97.8666,42.3914 C97.9266,42.3914 97.9566,42.4244 97.9566,42.4904 L97.9566,42.9094 Z" id="Fill-107" fill="#0C6635"></path>
                <path d="M102.2535,38.6126 C102.2535,38.2016 102.1215,37.9176 101.8585,37.7586 C101.5965,37.5996 101.2075,37.5196 100.6915,37.5196 L100.4705,37.5196 C100.3885,37.5196 100.3055,37.5216 100.2205,37.5246 C100.1355,37.5266 100.0545,37.5296 99.9775,37.5326 C99.9005,37.5356 99.8385,37.5396 99.7885,37.5446 L99.7885,39.7966 C99.9695,39.8006 100.1425,39.8046 100.3065,39.8076 C100.4705,39.8106 100.5995,39.8116 100.6915,39.8116 C100.9435,39.8116 101.1675,39.7946 101.3615,39.7586 C101.5565,39.7226 101.7195,39.6616 101.8505,39.5736 C101.9825,39.4866 102.0815,39.3696 102.1495,39.2246 C102.2195,39.0806 102.2535,38.8946 102.2535,38.6706 L102.2535,38.6126 Z M103.2225,42.9006 C103.2225,42.9716 103.1875,43.0086 103.1155,43.0086 L102.5905,43.0086 C102.5405,43.0086 102.5005,43.0036 102.4715,42.9956 C102.4405,42.9866 102.4095,42.9566 102.3765,42.9006 L100.9055,40.4526 L100.6915,40.4526 C100.5555,40.4526 100.4255,40.4516 100.3025,40.4486 C100.1795,40.4456 100.0075,40.4386 99.7885,40.4276 L99.7885,42.8426 C99.7885,42.8866 99.7745,42.9256 99.7475,42.9586 C99.7205,42.9916 99.6845,43.0086 99.6415,43.0086 L99.1965,43.0086 C99.1525,43.0086 99.1175,42.9916 99.0905,42.9586 C99.0635,42.9256 99.0495,42.8866 99.0495,42.8426 L99.0495,37.0926 C99.0495,37.0326 99.0635,36.9906 99.0905,36.9666 C99.1175,36.9406 99.1695,36.9236 99.2465,36.9126 C99.3345,36.9016 99.4375,36.8916 99.5545,36.8836 C99.6725,36.8756 99.7955,36.8686 99.9245,36.8626 C100.0535,36.8576 100.1835,36.8536 100.3145,36.8506 C100.4455,36.8476 100.5715,36.8466 100.6915,36.8466 C101.0155,36.8466 101.3175,36.8776 101.6005,36.9366 C101.8825,36.9976 102.1255,37.0956 102.3315,37.2326 C102.5365,37.3696 102.6975,37.5506 102.8155,37.7746 C102.9335,37.9996 102.9925,38.2786 102.9925,38.6126 L102.9925,38.6706 C102.9925,38.9006 102.9605,39.1066 102.8985,39.2906 C102.8355,39.4736 102.7455,39.6336 102.6315,39.7706 C102.5165,39.9076 102.3795,40.0226 102.2205,40.1156 C102.0615,40.2096 101.8895,40.2806 101.7025,40.3296 L103.1975,42.8266 C103.2145,42.8546 103.2225,42.8796 103.2225,42.9006 L103.2225,42.9006 Z" id="Fill-109" fill="#0C6635"></path>
                <path d="M107.6509,41.4221 C107.6509,41.6191 107.6209,41.8171 107.5599,42.0141 C107.4999,42.2111 107.3949,42.3881 107.2439,42.5431 C107.0929,42.6991 106.8859,42.8251 106.6239,42.9211 C106.3609,43.0171 106.0269,43.0651 105.6219,43.0651 C105.3319,43.0651 105.0769,43.0531 104.8579,43.0281 C104.6379,43.0031 104.4379,42.9781 104.2569,42.9501 C104.1859,42.9391 104.1429,42.9231 104.1269,42.9011 C104.1099,42.8791 104.1019,42.8461 104.1019,42.8021 L104.1019,42.4741 C104.1019,42.4301 104.1159,42.3971 104.1429,42.3751 C104.1709,42.3531 104.2029,42.3421 104.2419,42.3421 L104.2659,42.3421 C104.3589,42.3531 104.4639,42.3611 104.5829,42.3661 C104.6999,42.3721 104.8189,42.3781 104.9399,42.3831 L105.3009,42.3921 L105.6219,42.3921 C105.8679,42.3921 106.0719,42.3681 106.2339,42.3211 C106.3949,42.2761 106.5229,42.2091 106.6159,42.1241 C106.7089,42.0401 106.7739,41.9371 106.8119,41.8171 C106.8509,41.6951 106.8709,41.5651 106.8709,41.4221 C106.8709,41.3181 106.8539,41.2241 106.8209,41.1391 C106.7879,41.0541 106.7329,40.9701 106.6569,40.8881 C106.5799,40.8061 106.4779,40.7201 106.3519,40.6291 C106.2259,40.5391 106.0709,40.4371 105.8839,40.3211 L105.0879,39.8371 C104.7099,39.6071 104.4259,39.3751 104.2379,39.1431 C104.0479,38.9091 103.9539,38.6291 103.9539,38.3011 C103.9539,37.8021 104.1239,37.4351 104.4629,37.1991 C104.8019,36.9641 105.2879,36.8471 105.9179,36.8471 C106.0379,36.8471 106.1649,36.8501 106.2989,36.8551 C106.4329,36.8601 106.5649,36.8671 106.6939,36.8751 C106.8219,36.8841 106.9439,36.8951 107.0589,36.9081 C107.1739,36.9221 107.2699,36.9341 107.3459,36.9441 C107.4399,36.9621 107.4869,37.0081 107.4869,37.0851 L107.4869,37.4381 C107.4869,37.5261 107.4399,37.5691 107.3459,37.5691 L107.3309,37.5691 C107.1499,37.5591 106.9289,37.5481 106.6689,37.5361 C106.4089,37.5261 106.1589,37.5201 105.9179,37.5201 C105.4899,37.5201 105.1819,37.5741 104.9929,37.6851 C104.8039,37.7941 104.7099,37.9991 104.7099,38.3011 C104.7099,38.4921 104.7809,38.6591 104.9229,38.8021 C105.0649,38.9431 105.2929,39.1091 105.6049,39.2941 L106.3609,39.7461 C106.5959,39.8891 106.7969,40.0261 106.9609,40.1571 C107.1249,40.2881 107.2589,40.4201 107.3629,40.5511 C107.4669,40.6831 107.5409,40.8191 107.5849,40.9621 C107.6289,41.1051 107.6509,41.2581 107.6509,41.4221" id="Fill-111" fill="#0C6635"></path>
                <path d="M109.5318,42.843 C109.5318,42.887 109.5178,42.926 109.4908,42.958 C109.4638,42.991 109.4278,43.008 109.3838,43.008 L108.9318,43.008 C108.8878,43.008 108.8518,42.991 108.8258,42.958 C108.7978,42.926 108.7838,42.887 108.7838,42.843 L108.7838,37.06 C108.7838,37.017 108.7978,36.98 108.8258,36.949 C108.8518,36.919 108.8878,36.904 108.9318,36.904 L109.3838,36.904 C109.4278,36.904 109.4638,36.919 109.4908,36.949 C109.5178,36.98 109.5318,37.017 109.5318,37.06 L109.5318,42.843 Z" id="Fill-113" fill="#0C6635"></path>
                <path d="M114.813,37.4134 C114.813,37.5014 114.761,37.5444 114.658,37.5444 L113.055,37.5444 L113.055,42.8434 C113.055,42.8874 113.042,42.9264 113.014,42.9584 C112.987,42.9914 112.952,43.0084 112.908,43.0084 L112.456,43.0084 C112.413,43.0084 112.376,42.9914 112.349,42.9584 C112.322,42.9264 112.308,42.8874 112.308,42.8434 L112.308,37.5444 L110.707,37.5444 C110.663,37.5444 110.625,37.5334 110.591,37.5124 C110.558,37.4904 110.542,37.4574 110.542,37.4134 L110.542,37.0524 C110.542,37.0084 110.558,36.9734 110.591,36.9444 C110.625,36.9184 110.663,36.9034 110.707,36.9034 L114.658,36.9034 C114.761,36.9034 114.813,36.9534 114.813,37.0524 L114.813,37.4134 Z" id="Fill-115" fill="#0C6635"></path>
                <path d="M119.6109,37.0188 C119.6109,37.0458 119.6029,37.0768 119.5869,37.1098 L118.3129,39.9678 C118.2369,40.1318 118.1629,40.2558 118.0909,40.3378 C118.0199,40.4198 117.9469,40.4778 117.8699,40.5098 L117.8699,42.8428 C117.8699,42.8868 117.8559,42.9258 117.8289,42.9578 C117.8009,42.9918 117.7659,43.0078 117.7209,43.0078 L117.2699,43.0078 C117.2259,43.0078 117.1909,42.9918 117.1639,42.9578 C117.1349,42.9258 117.1229,42.8868 117.1229,42.8428 L117.1229,40.5098 C117.0459,40.4828 116.9709,40.4268 116.8999,40.3418 C116.8289,40.2568 116.7559,40.1318 116.6779,39.9678 L115.4139,37.1098 C115.3969,37.0768 115.3879,37.0458 115.3879,37.0188 C115.3879,36.9428 115.4349,36.9038 115.5289,36.9038 L116.0299,36.9038 C116.0569,36.9038 116.0859,36.9158 116.1159,36.9408 C116.1459,36.9658 116.1669,36.9918 116.1769,37.0188 L117.3109,39.6808 C117.3549,39.7738 117.3899,39.8328 117.4179,39.8578 C117.4449,39.8818 117.4729,39.8938 117.4999,39.8938 C117.5279,39.8938 117.5539,39.8818 117.5829,39.8578 C117.6099,39.8328 117.6449,39.7738 117.6889,39.6808 L118.8309,37.0188 C118.8409,36.9918 118.8599,36.9658 118.8839,36.9408 C118.9089,36.9158 118.9379,36.9038 118.9699,36.9038 L119.4719,36.9038 C119.5649,36.9038 119.6109,36.9428 119.6109,37.0188" id="Fill-117" fill="#0C6635"></path>
                <mask id="mask-6" fill="white">
                    <use xlink:href="#path-5"></use>
                </mask>
                <g id="Clip-120"></g>
                <polygon id="Fill-119" fill="#0C6635" mask="url(#mask-6)" points="-0.001 46.5706 119.432 46.5706 119.432 45.3846 -0.001 45.3846"></polygon>
            </g>
        </g>
    </g>
</svg>